<?xml version="1.0" encoding="utf-8"?>
<!-- Generator: Adobe Illustrator 23.0.0, SVG Export Plug-In . SVG Version: 6.00 Build 0)  -->
<svg version="1.1" id="Layer_1" xmlns="http://www.w3.org/2000/svg" xmlns:xlink="http://www.w3.org/1999/xlink" x="0px" y="0px"
	 viewBox="0 0 1000 1000" style="enable-background:new 0 0 1000 1000;" xml:space="preserve">
<style type="text/css">
	.st0{fill:#B0B0B0;}
</style>
<g>
	<path class="st0" d="M375.8,900.4c0-35.1,0.2-70.3-0.2-105.4c-0.1-8.2,1.1-11.6,10.5-11.5c8.9,0.1,10.9,2.4,10.8,11.1
		c-0.5,45.9-0.1,91.7-0.4,137.6c0,3.7,3.9,11.2-3.8,11.1c-7.3-0.1-16.4,5-21.9-5.1c-13.9-25.4-28.2-50.5-42.2-75.8
		c-7.3-13.2-14.4-26.4-21.8-39.8c-3.8,1.9-1.7,5.4-1.7,8c-0.2,34.5-0.5,69,0.1,103.5c0.1,9-3.4,9.8-10.8,9.9c-7.6,0-10.9-1-10.8-9.9
		c0.5-46.6,0.4-93.3,0-139.9c-0.1-8.1,1.8-9.9,10.1-10.6c11.6-1.1,17.1,3.7,22.2,13.1c19,34.9,38.6,69.4,57.9,104.1
		C374.4,900.6,375.1,900.5,375.8,900.4z"/>
	<path class="st0" d="M622.6,863.5c0-23.9,0.2-47.8-0.1-71.8c-0.1-5.9,1.2-8.1,7.7-8c29.8,0.4,59.6,0.6,89.4-0.1
		c10.6-0.3,8.2,5.9,8.8,11.8c0.8,7.6-1.6,10-9.5,9.8c-21.9-0.6-43.9,0.2-65.9-0.4c-8.2-0.2-9.8,2.8-9.3,10c0.6,8.2,0.7,16.5,0,24.7
		c-0.7,8,1.4,10.8,10,10.5c18.4-0.7,36.9-0.1,55.3-0.3c7.4-0.1,12.8-0.9,12.8,10.4c0,11.4-5.2,11.2-13.4,11
		c-18.4-0.4-36.9,0.3-55.3-0.3c-8.1-0.3-9.8,2.6-9.4,9.9c0.6,10.6,0.6,21.2,0,31.7c-0.4,6.8,2,8.5,8.5,8.4
		c22.7-0.4,45.5,0.4,68.2-0.4c11.3-0.4,7.8,6.9,8,12.4c0.3,5.6,2.1,11.4-8.1,11.2c-29.8-0.7-59.6-0.5-89.4-0.1
		c-6.7,0.1-8.6-1.9-8.5-8.5C622.8,911.4,622.6,887.4,622.6,863.5z"/>
	<path class="st0" d="M801,946.3c-24.7,1.9-51.1-12.6-55.7-48.8c-0.5-3.9-2.1-10,5.2-8.6c5.3,1.1,13.7-8,16,5.5
		c4.9,28.4,30.3,40.2,56,27.3c11.5-5.8,12.6-15.5,12.1-26.6c-0.5-9.9-6.9-14.4-15.1-16.9c-12.8-4-25.8-7.4-38.7-11
		c-24.1-6.8-31.8-21.5-30.7-41.8c1.5-26.1,18-43.5,40.9-46.2c27.7-3.2,50.5,8.4,58.5,29.6c0.9,2.3,1.3,4.4,1.5,6.7
		c0.7,5.3,7.7,12.6-2,15c-7.8,1.9-17.4,3.5-19.6-10.1c-2.1-13.4-12.1-19.6-27.2-20c-17.8-0.5-25.4,4-30,17.7
		c-3.7,11,0.1,20.6,10.9,24.5c12.3,4.4,24.9,7.8,37.4,11.5c30.1,9,39,23.1,35,55.6c-2.5,20.3-23.7,36.2-48.7,36.5
		C804.9,946.3,803,946.3,801,946.3z"/>
	<path class="st0" d="M427.3,841.2c0-16.1,0.5-32.2-0.2-48.2c-0.4-8.4,3-9.8,10-9.2c6,0.5,11.9-1.8,11.6,8.8
		c-0.8,28.6,0,57.2-0.5,85.8c-0.1,8,1.2,15.6,2.9,23.1c3.8,16.5,17.9,25.2,36.4,23.5c16.8-1.5,26.9-12.3,29.3-29.2
		c4.5-32.4,1.1-64.7,0.1-97.1c-0.5-14.2,5.2-18.9,19.5-15c3,0.8,3.7,2.3,3.6,4.9c-1.6,40.1,4.6,80.7-4.6,120.4
		c-6.3,27.4-25.3,38.3-60,37.1c-22.6-0.8-41.5-18.1-45.8-41.9c-0.7-3.8-2.1-7.6-2.2-11.4C427.2,875.7,427.3,858.5,427.3,841.2
		C427.3,841.2,427.3,841.2,427.3,841.2z"/>
	<path class="st0" d="M592,864c0,23.9-0.4,47.7,0.2,71.5c0.2,8.6-4,8.7-9.9,8.1c-5.1-0.5-11.7,3-11.6-7.5c0.4-48.5,0.4-97,0-145.4
		c-0.1-10,6.5-6.3,11.1-6.7c5.1-0.4,10.7-2.1,10.5,7.3C591.6,815.5,592,839.8,592,864z"/>
	<path class="st0" d="M856.8,386.1C851,195.2,700.7,46.7,510.5,40.8C300.9,34.3,140.8,201,140.8,398.1
		c0,199,161.3,358.2,358.3,357.6C691.3,756.5,863.4,601,856.8,386.1z M674,662.4c-28.4,36.6-68.2,55-112.3,64.9
		c-20.5,4.6-41.2,7.8-62.3,7.2c-106.9,0-197.6-75.8-218.3-179.4C258,439.3,330.9,321.6,451.2,295.2c68.5-15,131.4,0.3,186.9,44.1
		c45.4,35.9,72.4,83.2,80.3,139.7C727.6,545.2,716.1,608.2,674,662.4z M725.2,618c5.6-19.3,10.9-36.4,13.7-54.3
		c11.7-73.9-1.3-141.9-47.8-201.7c-35.2-45.3-81.2-74.5-137.4-87.1c-74.8-16.7-143-1.7-203.8,44.3c-50.1,37.9-80.7,89.1-91.3,150.7
		c-9.8,56.7-0.8,111.3,27.7,162c0.9,1.6,3.2,2.6,1.2,5.7c-23.7-26.7-40.9-56.8-52.9-89.9c-12.6-35-18.8-71.4-16.3-108.5
		c4-60.5,24.4-115,63.1-162.5c43.1-52.9,98.1-87.3,164.7-99c88.5-15.5,172-0.6,243.2,57.9c43.6,35.8,68.6,84.1,81.7,138.7
		c6.1,25.4,9,51.4,9.2,77.4C780.5,507.8,761.9,571.8,725.2,618z M764.2,601.8c9.6-21.5,19-43,25.8-65.7
		c10.5-34.9,13.9-70.5,11.2-106.2c-4.3-58-19.3-113.2-53.5-161.6c-40.3-57.1-95.6-91.7-163-107.9c-34.3-8.2-69.3-11.7-104.4-9.2
		c-61.6,4.3-117.9,24.7-166.6,63.2c-56.9,44.9-94.7,102.6-110.2,174.1c-15.3,70.4-6.9,137.7,25.8,202c1.8,3.6,3.5,7.4,6.5,13.8
		c-86.5-100.8-108.8-283.8,3.7-419.2C365.3,33.8,576.2,24.6,713.8,140.1C864.6,266.7,866.3,476,764.2,601.8z"/>
	<path class="st0" d="M220.4,791.2c-1.7-5.3-4-8.5-9.7-7.2c-6.2,1.4-15-4.7-18.3,5.2C175,840.3,157.9,891.6,140.7,943
		c22.1,1.9,22.1,1.9,28.9-18.6c0.6-1.8,1-3.7,1.6-5.5c7.3-22.3,7.3-22.3,31.1-22.2c9.4,0,20.8-2.9,27.6,1.3c7.2,4.5,7,17,10,26
		c6.9,20.4,6.9,20.4,29.4,19.2C252.8,891.9,236.4,841.6,220.4,791.2z M184.6,875.4c6.7-20.9,13.2-41.2,20.3-63.1
		c7,21.5,13.5,41.5,20.5,63.1C211.4,875.4,198.5,875.4,184.6,875.4z"/>
</g>
</svg>
