<?xml version="1.0" encoding="utf-8"?>
<!-- Generator: Adobe Illustrator 23.0.0, SVG Export Plug-In . SVG Version: 6.00 Build 0)  -->
<svg version="1.1" id="Layer_1" xmlns="http://www.w3.org/2000/svg" xmlns:xlink="http://www.w3.org/1999/xlink" x="0px" y="0px"
	 viewBox="0 0 1000 1000" style="enable-background:new 0 0 1000 1000;" xml:space="preserve">
<style type="text/css">
	.st0{fill:#FFFFFF;}
</style>
<g>
	<path class="st0" d="M82.8,93.5c49.7,0,94.1-3.7,137.6,1c43.4,4.7,75.5,48.6,75.7,94.7c0.4,110.7-0.4,221.4,0.3,332.1
		c0.8,115.4,48.3,202.4,149.7,255.7c2.5,1.3,4.9,3.1,6.9,6.1c-58.5-2-117.1,7.9-174.8-6.2c-80.1-19.5-137.2-98.9-141-170.6
		c-5.4-101.6-1-203.2-2.6-304.8c-0.5-29.6-1.4-59.3,0.2-88.8C137.5,165.4,130.4,123,82.8,93.5z"/>
	<path class="st0" d="M550.8,222.1c53.9-0.4,107.5-9,160.4,0.9c80.4,15.1,146.1,97.9,146.2,183.6c0.3,126.6,0.1,253.2,0.1,379.8
		c0,66.7,4.1,77.1,49.2,122.9c-42.7,0-84.3,3.1-125.3-0.8c-47.7-4.6-82.2-51.4-82.3-104.7c-0.2-110.5,0-221.1-0.1-331.6
		c-0.1-111.2-48.9-191.9-140.8-245.5C555.8,225.3,553.3,223.7,550.8,222.1z"/>
	<path class="st0" d="M983.6,632.8c0,83.7-0.4,167.4,0.3,251.2c0.1,15-4.4,17.3-17.9,14.6c-33-6.7-60.5-34.2-65.1-67.5
		c-1.4-10.3-1.8-20.8-1.8-31.3c-0.1-130.2,0-260.3-0.1-390.5c0-125.3-97-222.6-222-222.8c-43.2-0.1-86.4-0.7-129.5,0.3
		c-15.6,0.4-17.4-5.8-14.7-18.5c7.5-34.3,33.7-62.4,69.7-65.2c74-5.8,148-5,215.8,32.3c106.2,58.5,162.7,148.1,165,269.8
		C984.7,481.1,983.6,557,983.6,632.8z"/>
	<path class="st0" d="M17.4,368.1c0-83.1,0.5-166.2-0.4-249.2c-0.2-17.5,5.2-18.9,20.1-15c40.9,10.7,64.7,42.8,64.8,90.9
		c0.1,132.1,0,264.3,0,396.4c0,127.6,97,224.3,224.7,224.4c42.5,0,85.1,0.6,127.6-0.3c14.1-0.3,16.5,4.4,14,16.8
		c-6.7,33.2-33.4,63.2-66.8,65.9c-75.3,6.1-150.7,6.5-219.7-31.7C76.4,807.9,20.1,718.6,17.6,597.7
		C16.1,521.2,17.4,444.7,17.4,368.1z"/>
	<path class="st0" d="M521.7,729.8c-17.8-17.5-35.7-31.5-49.1-49.1c-22.4-29.4-20.6-61.5-2.5-93.1c27.1-47.2,53.7-94.6,81.4-141.3
		c13.4-22.7,22.3-46.1,21.1-73.4c62.3,41.8,82.2,107,45.1,167c-27.3,44.1-51.4,90.2-77.4,135.2C530.9,691.5,522.8,708.3,521.7,729.8
		z"/>
	<path class="st0" d="M430.8,640.8c-60.1-46-63.8-114.3-32.5-165.5C427,428.5,452.2,379.2,479,331c8.3-14.9,15-30.4,15.3-48.3
		c47.6,24.1,65.7,83.8,39.7,131.2c-26.8,48.9-54,97.6-80.9,146.4C433.5,595.5,431.7,602,430.8,640.8z"/>
	<path class="st0" d="M546.3,89.5c-2.4,8.4-7.6,9.6-11.2,12.8c-22.8,20.4-37.3,45.7-37.1,78.9c0.1,10.9-2.2,17.3-13.8,17.2
		c-43.7-0.3-87.4-0.3-131,0c-10.2,0.1-11.1-4.6-10.5-14.5c3.5-51.2,43.7-91.6,96.4-94.1c31.1-1.5,62.2-0.3,93.3-0.3
		C536.6,89.5,540.7,89.5,546.3,89.5z"/>
	<path class="st0" d="M456.2,909.8c33.8-24.4,49.2-54.9,50.1-94.2c0.2-8.3,2.9-11.6,10.4-11.6c43.2,0.2,86.5,0.3,129.7-0.1
		c10-0.1,11.6,5.3,11.1,14.6c-2.4,42.5-41.3,88.8-79.8,90.8C538.8,911.4,499.8,909.8,456.2,909.8z"/>
</g>
</svg>
