<?xml version="1.0" encoding="utf-8"?>
<!-- Generator: Adobe Illustrator 24.0.1, SVG Export Plug-In . SVG Version: 6.00 Build 0)  -->
<svg version="1.1" id="Layer_1" xmlns="http://www.w3.org/2000/svg" xmlns:xlink="http://www.w3.org/1999/xlink" x="0px" y="0px"
	 viewBox="0 0 867.4 173.2" style="enable-background:new 0 0 867.4 173.2;" xml:space="preserve">
<style type="text/css">
	.st0{fill:none;stroke:#B0B0B0;stroke-width:10;stroke-miterlimit:10;}
	.st1{fill:#B0B0B0;stroke:#B0B0B0;stroke-width:5;stroke-miterlimit:10;}
	.st2{fill:#B0B0B0;}
</style>
<g>
	<path class="st0" d="M245.1,147.7H39.8c-6.8,0-12.3-5.5-12.3-12.3V50.9c0-6.8,5.5-12.3,12.3-12.3H245c6.8,0,12.3,5.5,12.3,12.3
		v84.5C257.4,142.2,251.9,147.7,245.1,147.7z"/>
	<g class="st2">
		<path d="M350.6,103.9c-2.5,6.8-6.4,12-11.6,15.7s-11.3,5.6-18.4,5.6c-8.9,0-16.6-3.1-22.8-9.2c-6.3-6.1-9.4-13.6-9.4-22.4
			c0-8.9,3.1-16.4,9.2-22.5s13.7-9.2,22.6-9.2c7,0,13.2,1.9,18.7,5.7c5.5,3.8,9.4,9.1,11.7,15.9h-16.3c-2.9-5.5-7.6-8.3-14.1-8.3
			c-5,0-9.1,1.7-12.4,5.1c-3.2,3.4-4.9,7.8-4.9,13.1c0,5.3,1.7,9.7,5,13.2s7.5,5.2,12.5,5.2c5.7,0,10.3-2.7,13.7-8L350.6,103.9
			L350.6,103.9z"/>
		<path d="M414.5,123.8h-13.4V118c-2.7,2.7-5.3,4.6-8,5.6c-2.6,1.1-5.7,1.6-9.4,1.6c-15.3,0-23-9.8-23-29.4V63.4h14.5v29.5
			c0,7.5,0.9,12.5,2.8,15.1s4.8,3.9,8.6,3.9c5,0,8.7-1.9,11-5.6c1.5-2.5,2.3-7.4,2.3-14.5V63.4h14.5v60.4H414.5z"/>
		<path d="M487.3,123.8H474V116c-2.9,3.3-5.9,5.6-9,7.1s-6.8,2.2-11,2.2c-8.8,0-16.1-3-21.8-8.9c-5.7-5.9-8.6-13.4-8.6-22.5
			c0-9.2,2.9-16.8,8.7-22.8s13.1-9,22.1-9c8.4,0,14.9,3.2,19.7,9.5v-8.1h13.3v60.3H487.3z M473.5,94c0-5.5-1.7-10-5-13.5
			s-7.6-5.2-12.8-5.2s-9.4,1.8-12.7,5.3c-3.3,3.5-5,8-5,13.6c0,5.3,1.7,9.6,5,12.9s7.6,4.9,12.9,4.9c5.4,0,9.6-1.7,12.8-5.1
			C472,103.4,473.5,99.2,473.5,94z"/>
		<path d="M559,123.8h-13.3V116c-5.4,6.2-12.1,9.3-19.9,9.3c-8.6,0-15.8-3.1-21.6-9.2c-5.8-6.1-8.7-13.6-8.7-22.6s2.9-16.6,8.8-22.9
			c5.8-6.2,13-9.4,21.4-9.4c8,0,14.3,2.5,18.9,7.5V43.2h14.5v80.6H559z M545.6,93.2c0-5.3-1.7-9.8-5.1-13.4
			c-3.4-3.6-7.7-5.4-12.8-5.4c-4.9,0-9.1,1.8-12.5,5.3s-5.1,7.9-5.1,13c0,5.4,1.7,9.9,5.2,13.6c3.5,3.7,7.7,5.5,12.8,5.5
			c4.9,0,9.1-1.8,12.5-5.4C543.9,102.9,545.6,98.5,545.6,93.2z"/>
		<path d="M597.5,75.9c-8.6,0.2-13,5-13,14.3v33.6H570V63.4h13.3v5.9c1.9-2.8,3.8-4.7,5.6-5.7c1.9-1.1,4.3-1.6,7.5-1.6h1.1
			L597.5,75.9L597.5,75.9z"/>
		<path d="M664.3,94c0,8.5-3.2,15.8-9.5,22c-6.3,6.1-13.9,9.2-22.7,9.2c-8.9,0-16.4-3.1-22.7-9.3s-9.4-13.6-9.4-22.3
			c0-8.6,3.1-16.1,9.4-22.3c6.2-6.2,13.8-9.3,22.6-9.3c9.1,0,16.7,3.1,22.9,9.3C661.2,77.4,664.3,85,664.3,94z M649.7,93.6
			c0-5-1.7-9.3-5.1-12.9c-3.4-3.6-7.6-5.4-12.4-5.4c-4.7,0-8.8,1.8-12.3,5.3c-3.5,3.6-5.2,7.8-5.2,12.8c0,5.2,1.7,9.5,5.1,13.1
			c3.4,3.6,7.6,5.4,12.4,5.4c4.8,0,8.9-1.8,12.3-5.3C648,103,649.7,98.6,649.7,93.6z"/>
		<path d="M712.4,104.6c0,5.7-2.1,10.6-6.3,14.6s-9.3,6-15.3,6c-6.2,0-11.2-1.7-15.2-5.2c-3.9-3.5-6.3-8.6-7-15.4h14.6
			c0.7,2.5,1.7,4.4,3,5.6s3,1.7,5.1,1.7c1.9,0,3.5-0.6,4.7-1.7c1.2-1.1,1.9-2.5,1.9-4.2c0-1.8-0.5-3.2-1.6-4c-1.1-0.9-4-2.1-8.6-3.7
			c-6-2-10.3-4.4-12.9-7.1c-2.6-2.7-3.9-6.3-3.9-10.7c0-5.2,1.9-9.5,5.8-13.1c3.9-3.6,8.6-5.3,14.2-5.3c5.3,0,9.9,1.6,13.7,4.9
			c3.8,3.3,5.9,7.7,6.2,13.2h-14.2c-0.7-3.2-2.5-4.8-5.7-4.8c-1.6,0-2.9,0.5-4,1.5s-1.6,2.2-1.6,3.7c0,1.6,0.5,2.7,1.4,3.3
			c0.9,0.6,3.9,1.7,8.8,3.3c6.2,2,10.6,4.3,13.1,6.9C711.1,96.5,712.4,100.1,712.4,104.6z"/>
		<path d="M782,94c0,8.5-3.2,15.8-9.5,22c-6.3,6.1-13.9,9.2-22.7,9.2c-8.9,0-16.4-3.1-22.7-9.3s-9.4-13.6-9.4-22.3
			c0-8.6,3.1-16.1,9.4-22.3c6.2-6.2,13.8-9.3,22.6-9.3c9.1,0,16.7,3.1,22.9,9.3C778.9,77.4,782,85,782,94z M767.4,93.6
			c0-5-1.7-9.3-5.1-12.9c-3.4-3.6-7.6-5.4-12.4-5.4c-4.7,0-8.8,1.8-12.3,5.3c-3.5,3.6-5.2,7.8-5.2,12.8c0,5.2,1.7,9.5,5.1,13.1
			c3.4,3.6,7.6,5.4,12.4,5.4c4.8,0,8.9-1.8,12.3-5.3C765.7,103,767.4,98.6,767.4,93.6z"/>
		<path d="M814.2,57.2h-1.4c-2.8,0-4.8,0.5-5.9,1.6c-1.1,1.1-1.7,3-1.7,5.7h8.2v12.1h-8.2v47.2h-14.6V76.6h-5.2V64.5h5.2
			c1.5-14.2,8.1-21.3,19.9-21.3c1.2,0,2.4,0.1,3.6,0.2L814.2,57.2L814.2,57.2z"/>
		<path d="M847.7,76.6H839v47.2h-14.5V76.6h-7.1V63.4h7.1V43.2H839v20.2h8.7V76.6z"/>
	</g>
	<path class="st1" d="M33.7,99.3h-6.2V87h6.1c3.4,0,6.2,2.8,6.2,6.2l0,0C39.8,96.6,37.1,99.3,33.7,99.3z"/>
</g>
</svg>
