<?xml version="1.0" encoding="utf-8"?>
<!-- Generator: Adobe Illustrator 23.0.0, SVG Export Plug-In . SVG Version: 6.00 Build 0)  -->
<svg version="1.1" id="Layer_1" xmlns="http://www.w3.org/2000/svg" xmlns:xlink="http://www.w3.org/1999/xlink" x="0px" y="0px"
	 viewBox="0 0 1000 1000" style="enable-background:new 0 0 1000 1000;" xml:space="preserve">
<style type="text/css">
	.st0{fill:#B0B0B0;}
</style>
<g>
	<path class="st0" d="M77.4,507.6c1.2-11.3-1.4-22.1-5.3-32.8c-9.6-26.3-18.6-52.8-27.9-79.2c-2.8-8-4-16.2-3.5-24.7
		c1.1-20.2,19.4-38,39.6-37.5c13.1,0.3,21.2,8.6,25.9,20c10.8,25.8,21.2,51.8,31.7,77.7c13.2,32.5,25.8,65.2,42,96.4
		c8.8,17,21.7,29.2,38.5,38c24.4,12.8,50.2,21.6,76.3,29.8c18.3,5.7,35.3,13.4,51.1,24.3c21.2,14.7,40,10.3,53.8-11.6
		c7.3-11.7,12.3-24.3,9.7-38.4c-2.7-14.8-12.6-18.8-24.2-9.5c-7.5,6-14.1,13.2-20.8,20.1c-3.6,3.7-7.1,5.5-11.7,2
		c-4.3-3.3-6.4-7.9-3.8-12.7c8.8-16.2,18.9-30.8,40.3-31.7c11.5-0.5,23-3,34.6-0.1c13.4,3.4,19.1,11.8,15.7,24.9
		c-7.6,29.8-21.2,56.6-42.4,79.1c-2.8,3-6.1,5.8-9.5,8.2c-11.9,8.5-14,8.7-25.1-0.5c-23.2-19.2-49.1-32.5-78.3-40.2
		c-26.4-7-52.3-15.9-78-25.4c-18.5-6.9-31.6-18.4-41.1-35.7c-21.5-39.3-38.9-80.5-56.7-121.5c-7.7-17.7-15.5-35.4-23.3-53
		c-2.9-6.7-7.4-12.2-13.7-15.8c-6.3-3.7-11.4-1.3-13,5.9c-1.5,6.9,0.4,13.4,2.8,19.8c13.8,35.7,29,70.9,44.7,105.8
		c7.3,16.2,7.4,16.2-6.6,27.6c-3.2,2.6-6.5,5.3-10,7.6c-2.6,1.8-5.1,4.3-8.7,2.6c-3.8-1.8-3.1-5.2-3.1-8.4
		C77.4,514.9,77.4,511.3,77.4,507.6z"/>
	<path class="st0" d="M553.5,551.7c-8,2-8.1,7.2-7.9,12.4c0.6,15.4,1.1,30.9,1.8,46.3c0.1,2.5,0.7,5.1,1.5,7.5
		c0.6,1.9,3.2,4.2,2.7,5.2c-1.9,3.9-5.5,2-8.4,1.2c-4.8-1.4-9.4,2.2-13.4,0.5c9.4-16.9,2.3-34.7,4.1-52.4c-4.6,0.4-5,3.2-5.8,5.3
		c-5.5,13.7-11,27.5-16.5,41.2c-0.9,2.3-1,5.8-4,6c-3.8,0.3-4-3.6-5.1-6.1c-6-13.2-11.7-26.5-17.7-39.7c-1.1-2.4-1.2-5.8-6-6.7
		c0.4,17.5-4.9,34.9,2.8,52.3c-6.2,0-12.2,0-19.4,0c12.7-10.1,8.8-24.2,9.6-36.6c0.8-11.9,5.9-25-3.4-36
		c17.2-2.6,17.1-2.6,24.2,13.7c5.5,12.6,11.2,25,17.9,40c5.9-14.3,11.7-25.8,15.4-37.9C529.7,554.4,536.3,546.8,553.5,551.7z"/>
	<path class="st0" d="M340.7,441.9c8.2-0.9,14.8-1.6,21.4-2.3c-8,5.1-7.1,13-7.4,20.4c-0.4,11.5,0.8,23.2-2,34.6
		c-3.8,15.3-13.4,22.4-29.6,21.7c-15.9-0.7-25.1-8.7-26.6-24.8c-1.1-12.1-0.5-24.4-1.1-36.6c-0.2-5,0.3-10.8-6.8-13.6
		c4.5,0,9-0.1,13.6,0c4.7,0.1,9.1-2.6,16.2-0.6c-9.8,3.5-9.4,10.6-9.4,17.2c-0.1,11.2-0.1,22.5,0.9,33.7c1,11.6,7.6,17.6,17.7,18
		c10.7,0.4,16.6-4.3,19.2-16.2c3-14,1.8-28.2,1.3-42.3C347.9,446.7,345.1,444.2,340.7,441.9z"/>
	<path class="st0" d="M214.6,382.2c1.7,14.3-1.7,19.2-13.7,20.8c-35.4,4.7-58-20.3-47.2-52.3c4.2-12.5,12.8-20.5,25.7-23.9
		c6.3-1.7,12.7-1.8,19.2-1.1c17.8,1.9,19.3,4.1,15.3,22.9c-3.1,0.3-2.5-2.2-2.9-3.9c-1.9-7.9-6.3-13.4-14.5-14.9
		c-8.5-1.5-16,0.9-21.5,7.8c-10.3,12.8-9.9,39.7,0.2,52.7c9.1,11.8,33.4,12.4,36.9-5.2C212.1,384.5,213.1,383.8,214.6,382.2z"/>
	<path class="st0" d="M708,509.1c-5.5,9.6-19.4,10.1-27,0.3c-6.6-8.5-7.5-18.2-3.5-28.3c3.9-10,11.5-14.9,22-16.3
		c3.8-0.5,10.2,3.5,10.7-4c0.4-6.6,3.1-14.7-7.4-17.8c5.7-5,12.8-2.2,18.4-5.7c2.3-1.4,1.9,3.8,2,6c0.1,17.4-0.2,34.8-0.1,52.1
		c0,5.9-0.9,12.6,8.2,14.8C722.3,513.2,714.7,517.7,708,509.1c5.8-9.3,2.7-19.8,3.4-29.8c0.4-5.3-2.6-8.5-7.1-10.1
		c-4.4-1.5-8.1,0.1-11.3,3.4c-5.4,5.6-6.3,19.2-2.4,28.3C694,508.8,700.4,509.9,708,509.1z"/>
	<path class="st0" d="M670.8,329c5.3-3.3,12.8,0.3,19.3-7.5c0,15.4,0,27.7,0,40c0,7.4,0,14.8,0.1,22.2c0,5.8-0.3,11.9,8.2,13.9
		c-7.3-0.2-13.1,10.1-20.3,0.7c-1.1-1.5-3.1,1.4-4.7,2.2c-13.6,6.9-25.9,1.4-30-13.4c-4.9-18,6.3-34,24.2-34.7
		c3.3-0.1,9,2.8,9.5-3.1c0.4-5.9,3.3-13-3.7-17.6C672.5,331,670.8,331.4,670.8,329z M678.5,376.4c0-2.6-0.1-5.2,0-7.7
		c0.3-6.1-1.3-11.1-8.1-12.2c-7.2-1.2-12.2,2.4-13.9,9c-1.9,7.2-2.1,14.6,1,21.8c2.4,5.7,6.1,10.5,12.9,9.2
		c6.9-1.3,8.6-6.9,8.1-13.3C678.4,380.9,678.5,378.7,678.5,376.4z"/>
	<path class="st0" d="M814.2,442.6c5.9-4.4,11.8-2.2,17-4.5c4-1.8,2.9,2.4,2.9,4.8c-0.1,16.7-0.3,33.4-0.3,50.1
		c0,6.9,0,14.1,9.1,17.3c-5.7,3.7-12,1.6-16.3,5.4c-6-9.3-11.3,0.7-17.1,0.7c-6.8,0-12.8-1.6-17.1-7c-7.4-9.4-6.9-19.7-2.7-30
		c4.1-10.1,12.7-13.7,23.1-14.6c3-0.3,8,4.2,8.8-1.2c0.9-5.9,2.9-12.9-2.6-18.2C817.9,444.4,816.3,443.8,814.2,442.6z M822.1,488.7
		c0-3.2-0.2-6.4,0-9.6c0.4-5.3-1.9-8.6-6.9-10c-4.9-1.3-8.8,0.4-11.9,4.2c-6.4,8-4.7,26.2,2.8,32.9c3.2,2.9,6.7,3.8,10.6,2.2
		c3.6-1.4,5.4-4.4,5.3-8.3C822.1,496.4,822.1,492.5,822.1,488.7z"/>
	<path class="st0" d="M424,513.3c-5.5,2.6-9.6,0.1-13.6,1.1c-5.7,1.3-5.4-2.7-5.4-6.4c0-9.3-0.1-18.7-0.3-28
		c-0.1-4.5-1.7-8.5-6.7-9.2c-4.2-0.5-8.3,1.6-9.1,5.6c-2.8,12.7-5.2,25.5,3.3,38.2c-7.8-0.6-15.3-1.3-25.8,0.8
		c10.2-7.5,7.7-16,7.6-23.7c-0.1-7.5,3-16.1-5.5-22.2c6.1,2.7,13-9.6,18.2,1.9c2.1-1.5,4.2-3.5,6.7-4.8c9.7-5.2,19.6-0.9,22.8,9.6
		c2.1,6.9,1.3,14,1.5,21.1C417.9,503.2,416.7,509.5,424,513.3z"/>
	<path class="st0" d="M581.3,403c-15.1-0.2-24.5-10.5-24.2-26.4c0.3-15.1,11.2-25.9,25.7-25.5c14.1,0.4,24.7,12.1,24.5,27
		C607,392.8,596.2,403.2,581.3,403z M593.9,377.7c0-4.8-0.1-8.9-1.4-12.9c-1.7-5.4-4.8-9.5-10.5-9.6c-5.3-0.1-8.8,4-10.1,8.8
		c-2.6,9.7-2.6,19.6,1,29.2c1.5,3.9,4.5,6,8.9,6.2c4.7,0.1,7.9-2.1,9.8-6.3C593.8,387.9,594.2,382.5,593.9,377.7z"/>
	<path class="st0" d="M408.7,403c-14.7,0-25.2-10.7-25.2-25.6c0.1-14.4,11.4-26.4,25-26.4c14.8,0,25.2,11.1,25.1,26.8
		C433.5,393.6,424.2,403,408.7,403z M421.5,376.5c-0.7-4-1.1-8.6-2.5-12.8c-1.6-4.7-4.5-8.9-10.2-8.8c-5,0.1-8.2,3.5-9.7,8.1
		c-3.4,10-3.4,20.1,0.5,30.1c1.5,3.9,4.4,6.2,8.8,6.2c4.3,0,7.3-1.8,9.3-5.6C420.5,388.5,420.4,382.6,421.5,376.5z"/>
	<path class="st0" d="M248.6,403.1c-14.5-0.1-25.5-11.2-25.3-25.7c0.1-14.4,11.4-26.1,25.3-26.4c14.2-0.3,25.9,12,25.7,26.8
		C274,392.8,263.4,403.2,248.6,403.1z M236.6,376.6c-0.7,4.8,0.7,9.5,1.9,14.1c1.4,5.2,4.7,8.4,10.3,8.6c5.8,0.2,8.7-3.4,10.3-8.4
		c2.7-8.9,2.6-17.8,0-26.6c-1.4-5-4.3-9-9.8-9.3c-5.6-0.3-8.7,3.5-10.5,8.4C237.2,367.5,236.1,371.9,236.6,376.6z"/>
	<path class="st0" d="M775.1,492.2c1.9,4.8-4.6,13.9,6.7,16.3c1,0.2,0.3,2.2-0.7,3.2c-2.1,2.2-5.3,4.5-7.6,3.1
		c-8.4-4.6-15.7-1.1-23.7,1c-5.2,1.4-10.5-1.1-12.5-6.8c-1.9-5.5-1.2-11.2,4.4-14.5c4.4-2.6,9.2-4.7,14.1-6.2
		c7.8-2.4,8.4-7.8,6.8-14.5c-0.8-3.5-2.7-5.8-6.7-5.5c-3.9,0.3-5.7,2.8-5.8,6.4c-0.1,3.6,0.5,7.4-4.5,8c-2.2,0.3-3.6-1-4.6-2.8
		c-2.3-4.1-0.8-7.6,2-10.5c5.6-5.7,12.7-5.7,19.9-4.6c6.6,1,9.5,5.8,11.2,11.9C775.3,481.6,774.9,486.4,775.1,492.2z M763.8,497.2
		c-1.5-1.6,1.9-5.6-2.7-6.4c-4.4-0.7-13.7,7.1-13.7,11.6c0,4.4,2.2,7,7,7.1C762.5,509.4,763.1,503.5,763.8,497.2z"/>
	<path class="st0" d="M762.1,619.3c-2.2,7.8-8.8,7.4-14.7,7.1c-5.3-0.3-8.8-3.8-9.9-9.1c-1.2-6.3,2.3-10.6,7.2-13.5
		c3.5-2.1,7.6-3.4,11.6-4.5c7-1.9,8.8-6.6,7.9-13.1c-0.5-3.9-2.2-6.8-6.4-7.2c-4.5-0.4-6,3.1-6.9,6.6c-0.7,2.9,0.9,6.9-3.8,7.6
		c-2.6,0.4-4.2-1.4-5.2-3.5c-1.7-3.8-0.3-6.9,2.4-9.6c6.2-6.1,13.8-6.5,21.5-4.1c7.1,2.2,9.5,8.2,9.8,15.1
		c0.2,5.1-0.2,10.3,0.2,15.4c0.3,3.5,1.4,6.8,2.1,10.3c0.5,2.4,8.4,1.6,3,6.3c-3.5,3.1-7.8,4.8-12.2,1.2
		C766.6,622.4,765.3,619.5,762.1,619.3c0.3-3.7,2.3-7.1,2.2-11.1c0-6-2.1-7.8-7.5-5.1c-4.8,2.4-9.3,5.6-7.7,11.8
		C751,622.2,757.4,618.8,762.1,619.3z"/>
	<path class="st0" d="M874.2,619.2c-2.2,7.8-8.9,7.4-14.7,7.1c-5.3-0.3-8.9-3.8-9.8-9.1c-1.1-6.2,2.2-10.5,7.3-13.4
		c3.6-2,7.5-3.6,11.5-4.7c7.1-2,8.7-6.8,7.8-13.2c-0.6-3.9-2.3-6.9-6.6-7c-4.1-0.1-6.4,2.6-6.9,6.6c-0.4,3,1,6.9-3.7,7.6
		c-2.6,0.4-4.1-1.4-5.2-3.5c-1.8-3.8-0.3-6.9,2.4-9.5c6.2-6.1,13.8-6.5,21.5-4.1c7.1,2.2,9.6,8.1,9.9,15c0.2,5.1-0.2,10.3,0.2,15.4
		c0.3,3.5,1.4,6.8,2.2,10.3c0.5,2.4,8.3,1.6,3,6.3c-3.5,3.1-7.9,4.8-12.2,1.2C878.7,622.4,877.5,619.5,874.2,619.2
		c0.5-2,1.5-4.1,1.7-6.3c0.4-3.5,1.6-7.5-0.8-10.3c-1.9-2.2-4.8,0-7,1.1c-4,1.8-7.6,4.4-7.2,9.2C861.7,622.4,869,618.8,874.2,619.2z
		"/>
	<path class="st0" d="M625.9,625.4c-7.7-1-13.5,1.5-18.7-2.8c21.2-10.7,21.4-26.9-0.1-45.3c7.9,0,14.9,0,22.5,0
		c-3.8,5.4,0,9.5,2.9,13.9c1.2,1.8,2.8,1.3,3.8-0.2c2.5-4.2,7.5-7.9,1.9-14c6,0,11,0,16.7,0c-6.9,7.6-19.3,12.5-15.7,23.9
		c2.8,8.9,8.8,17.5,19.9,24.1c-9,0.3-15.6-1.5-22.1,0.1c-2.8,0.7-3.3-0.9-1.7-3.3c0.6-0.9,1-2.6,0.5-3.5c-1.9-3.3-3.8-6.8-6.3-9.6
		c-1.4-1.5-2.7,0.6-3.5,1.9C622.9,614.8,619.8,619,625.9,625.4z"/>
	<path class="st0" d="M603.8,615.4c-6.7,10-17,13.4-27.6,10.1c-11.2-3.5-17.2-15.1-15-28.9c2.1-13.1,11.6-22.1,22.9-22
		c5.8,0.1,10.6,2.3,14.4,6.7c3,3.5,5.5,7.8,3.6,12.2c-1.7,3.9-6.4,1.5-9.7,2c-1.9,0.3-3.9-0.3-5.8,0.1c-4.5,1.1-10.9-3.4-13.3,3.7
		c-2.1,6.3,4.5,17.1,11.2,19.6C591.2,621.3,597,618.2,603.8,615.4z M581.9,592c3.1-1.4,8.9,2.2,9.1-3.8c0.1-4.8-2.8-9.4-8.8-9.4
		c-5.5,0-8.1,3.9-8.4,8.6C573.2,594.3,578.9,590.8,581.9,592z"/>
	<path class="st0" d="M556,504.5c-8,11.5-20.1,14.6-31,9.6c-10-4.6-15-18.1-11.4-30.8c4.3-15.2,17.1-22.8,29.9-17.5
		c3.7,1.5,6.7,3.9,8.6,7.4c1.6,3,3.7,6.4,1.9,10c-1.8,3.7-5.7,1.9-8.7,2.2c-2.5,0.2-5.2-0.3-7.7,0c-3.9,0.4-9.3-2.1-11.3,2.7
		c-2.2,5.3-0.5,10.9,3.2,15.3C536.6,512,545.1,510.1,556,504.5z M533.4,482c3.4-1.2,9.5,2.1,9.2-4.7c-0.2-4.5-3.1-8.6-8.5-8.8
		c-6-0.2-8.7,4.3-9.1,9.1C524.5,484.4,530.5,480.6,533.4,482z"/>
	<path class="st0" d="M888.4,506.4c-6.1,9.3-18.9,12.7-29.4,8c-10-4.5-15-18.4-11.5-32c3.1-12,12.4-18.8,24-17.9
		c5.9,0.4,10.3,3.1,13.6,8c2.3,3.4,3.8,7.1,2,10.9c-1.7,3.6-5.7,1.9-8.8,2.1c-3.8,0.3-7.8,0.4-11.6,0c-8.1-0.7-9.4,3.2-7.5,10
		c3.6,12.2,12.9,16.6,24.7,11.8C885.5,506.6,886.7,505.1,888.4,506.4z M867.6,481.9c3.3-0.9,8.8,2,8.6-4.6c-0.1-5.1-3-8.6-8.3-8.8
		c-6.2-0.3-8.8,4.2-8.9,9.3C858.8,484.4,864.7,480.6,867.6,481.9z"/>
	<path class="st0" d="M743.1,393.2c-6.2,10.7-16.1,11.3-25.9,8.8c-9.8-2.5-14.1-10.5-14.9-20.3c-1.2-14.6,6-26.2,17.6-29.7
		c6.9-2,12.7-0.3,17.8,4.2c3.9,3.5,7.8,8,5.8,13.3c-1.8,4.9-7.4,1.7-11.2,2.5c-0.9,0.2-2-0.1-2.9,0.1c-5,1.1-12.1-3.2-14.6,3.5
		c-2.1,5.5,0.8,11.4,4.8,15.8c4.5,4.9,10.1,6.7,16.6,4.7C738.7,395.4,740.9,394.2,743.1,393.2z M723.2,368.5
		c3.1-1.4,8.9,2.3,9.1-3.8c0.1-5.2-3.5-9.3-9.1-9.3c-5.2,0-8.4,4.1-8.5,8.9C714.4,370.9,720.3,367,723.2,368.5z"/>
	<path class="st0" d="M373,367.6c-4.4-2.3-3.7-6.3-5.9-8.6c-3.5-3.5-7.5-4.5-11.1-1.3c-3.9,3.5-2.7,7.8,1.4,10.6
		c3.7,2.6,7.9,4.3,11.6,6.8c5.6,3.6,8.7,8.8,7,15.5c-1.8,7.2-6.8,11.4-14.4,12.2c-16.1,1.7-19.7-1.4-18.2-16.8
		c4.1,1.4,3.3,5.9,5.4,8.4c2.9,3.6,6.4,5.3,10.9,4.4c3.1-0.6,5.2-2.6,5.7-5.8c0.6-4.5-2.1-7.1-5.6-9.2c-3.6-2.1-7.3-4.1-10.8-6.3
		c-4.9-3.1-6.9-7.8-5.7-13.3c1.4-6.4,5.4-10.6,12.2-12.1c5.9-1.3,11.9-1.8,16.4,2.5C375,357.8,373.2,362.5,373,367.6z"/>
	<path class="st0" d="M510.3,467c-10.3,12.8-14.7,27.6-20.5,41.7c-1.4,3.4-2.3,6.5-7,6.4c-4.6-0.1-4.6-3.7-5.9-6.5
		c-6.3-13.9-9.7-29.2-21.6-41.5c8.3,0,15.7,0,23.1,0c-2.7,7.5-0.3,17.8,8.2,33.4c8.6-10.2,11.2-23.9,6-33.6
		C498.3,467,503.8,467,510.3,467z"/>
	<path class="st0" d="M932,591.9c-2.7-4.7-3.9-7.8-6-10c-3.1-3.3-7.2-4.7-10.9-0.8c-3.8,4-2.2,7.8,1.9,10.5c4,2.7,8.5,4.6,12.4,7.4
		c9,6.5,8.8,18.1-0.6,24.1c-7.2,4.6-15.5,5.7-22.8,1c-5.4-3.4-3.1-9.8-3-15.2c3.1,3.1,3.5,7.6,6.8,10.2c4.2,3.4,9.2,4.5,13.1,0.5
		c4.5-4.6,1.5-9-2.8-12.1c-3.1-2.3-6.7-3.8-9.9-5.9c-5.3-3.3-8.5-7.7-7.2-14.4c1.3-6.9,6-10.5,12.3-12.1
		C928.5,571.9,933.1,576,932,591.9z"/>
	<path class="st0" d="M927.2,479.7c-3.9-1.3-3.5-4.4-4.9-6.4c-2.2-3.2-4.7-5.2-8.8-4.7c-2.9,0.4-4.6,2.2-5.1,5c-0.7,4,1,6.8,4.6,8.7
		c3.7,2,7.5,3.8,10.8,6.3c10.1,7.7,8.1,21.3-3.7,26.1c-14.5,5.9-23.4-0.3-22.3-15.7c3.6,1.9,3.4,6,5.4,8.7c2.7,3.6,6.3,4.2,10.3,3.8
		c3.3-0.4,5.2-2.3,5.6-5.6c0.5-4-1.1-6.8-4.6-8.8c-3.4-1.9-6.7-3.8-10-5.8c-5.6-3.3-8.2-8.1-6.9-14.6c1.3-6.2,5.4-10.1,11.5-11.6
		C922.8,461.7,928.1,465.9,927.2,479.7z"/>
	<path class="st0" d="M632.5,479.5c-3.3-1.5-2.9-5.5-5.1-7.7c-2.4-2.6-5.2-3.9-8.6-3c-2.6,0.7-4.7,2.5-5,5.3c-0.3,3.2,1.5,5.6,4,7.2
		c4.1,2.6,8.6,4.5,12.4,7.4c9.2,7,8.3,19-1.7,24.7c-7.2,4-15.2,4.5-22.2,0.2c-5.5-3.4-2.3-9.6-2.7-15.3c4.5,2.3,3.4,6.8,5.8,9.3
		c3.2,3.3,6.9,4.6,11.4,3.5c2.7-0.7,4.8-2.6,5.1-5.2c0.5-4.3-2.1-7.2-5.8-9.2c-3.4-1.9-6.7-3.8-10-5.8c-5.1-3.2-7.6-7.8-6.5-13.9
		c1.2-6.3,5.3-10.2,11.4-11.9C629.1,461.3,635.5,466.6,632.5,479.5z"/>
	<path class="st0" d="M731.4,617.9c-8.8,9.6-20.5,11.4-30.3,5.6c-9.2-5.5-13.3-19.2-9.3-30.9c4.1-12,15.9-19.5,27.8-17.5
		c4.6,0.8,8.8,2.5,10.7,7.2c1.3,3.1,0.1,5.8-2.8,7.4c-2.6,1.4-4.2,0-5.4-2.3c-2.4-4.7-5.2-9.9-11.5-7.7c-6.5,2.3-8.4,8.3-8.6,14.9
		C701.5,613.8,710.6,621.4,731.4,617.9z"/>
	<path class="st0" d="M588.7,514.3c-10.1,1.2-18.5-2.5-28.4,1.7c9.1-11.7,9-37.2,1.2-46.5c5.1-1.4,9.9-2.7,14.9-4
		c3.3,2.1-2.4,6.1,3.3,9c1.9-2.4,3.9-5.8,6.7-8.1c3.1-2.6,6.8-1.4,9.6,1.2c2.1,1.9,2.1,4.6,0.8,7.1c-1.8,3.7-4.5,2.2-7.4,1.4
		c-5.3-1.4-9,0.9-9.4,6.5c-0.4,7.4,0,14.8-0.4,22.1C579.6,509.9,584.6,510.6,588.7,514.3z"/>
	<path class="st0" d="M521,394.6c-7.1,10-23.4,12-32.8,3.9c-8.8-7.5-10.8-22.3-4.6-33.7c5.6-10.2,17.8-15.3,28.9-11.9
		c3.5,1.1,6.7,2.7,7.6,6.7c0.7,3.2-0.8,5.7-3.6,7.2c-3.1,1.7-3.7-1-4.7-3c-2.2-4.6-5-8.6-11-7.3c-5.6,1.2-7.3,5.8-8.4,10.7
		c-1.8,7.9-0.2,15.4,4.1,22.1C501.4,396.9,506.2,397.7,521,394.6z"/>
	<path class="st0" d="M468.3,402.2c-10.3-0.1-18.8-3.6-28.1,0.1c8.4-6.5,6.8-15,6.5-22.9c-0.3-7.6,3-16.5-6.4-21.5
		c13.6-7.5,16.1-6.6,16.8,7.2c2.6-4.1,3.7-8.2,7-10.7c3.5-2.6,7.1-2.8,10.6-0.2c1.9,1.4,2.9,3.4,2,5.9c-1.7,5-4.9,3.4-8.5,2.3
		c-3.5-1.1-6.4,0.8-7.7,4.2c-3.5,9-2.4,18.3-1.3,27.5C459.6,398.2,464.6,398.1,468.3,402.2z"/>
	<path class="st0" d="M550,401.6c-3.6,2.1-7.1-1.1-10.8-0.8c-3.8,0.2-7.4,2.4-12.3,0.7c7.9-6.2,5.9-14.8,5.5-22.6
		c-0.4-7.4,4.1-16.3-5.9-21.1c3-3.3,6.5-2.6,9.6-3.1c2.8-0.5,5.5-1.1,8.3-1.6C548.3,369.1,540,386.3,550,401.6z"/>
	<path class="st0" d="M452.9,514.4c-7.3,0-14.6,0-21.9,0c7-12.1,6.6-36.6-0.5-44.2c0.4-0.4,0.7-1.2,1.2-1.3
		c16.7-3.4,16.7-3.4,16.6,13.6c0,6.4,0.2,12.8,0,19.2C448.2,506.4,448.7,510.6,452.9,514.4z"/>
	<path class="st0" d="M659.8,580.5c3.5-2.6,6.6-1.4,9.3-2.1c2.7-0.7,5.3-1.9,8.5-3c4.1,16.2-4.3,33.8,5.8,49.3c-7.3,0-14.6,0-23,0
		c6.8-6.4,5.8-14.4,5.3-21.9C665.3,595.2,669.1,586.5,659.8,580.5z"/>
	<path class="st0" d="M299.9,360c3.4-8.5,10.8-8.3,17.8-7.3c7.2,0.9,10.1,6.8,10.9,13c0.9,6.3,0.4,12.8,0.6,19.3
		c0.3,6-0.1,12.3,8,16c-6.8,2.7-11.5-1.2-16.7,0.4c-4.2,1.4-3-3-3.1-5.2c-0.2-8.7,0.4-17.4-0.4-26c-1.2-12.5-4.9-14.3-16.4-9.4
		C300.4,360.5,300.1,360.3,299.9,360z"/>
	<path class="st0" d="M807.9,582.6c4.8-7.5,10.9-8.5,17.5-7.2c6,1.2,8.9,5.5,10.5,11.3c3.2,11.6-0.5,23.7,3.1,35.3
		c1.2,3.8-3,3.2-5.4,2.8c-3.2-0.6-8,1.8-8-5c0-9,0.9-17.9-0.8-26.9C822.5,581.2,821.2,580.2,807.9,582.6z"/>
	<path class="st0" d="M668.5,515c-8.2-1.8-15.7-0.7-24.1,0c10-10.8,10-36.3,0.6-45.4c5.6-2,11.8-0.6,17.1-5.3
		C666.6,481,658.1,498.6,668.5,515z"/>
	<path class="st0" d="M300.7,360.8c-2.4,7.8-2.6,15.8-2.6,23.8c0,6.5,0.3,12.6,6.8,16.9c-8.1-0.2-15.6-1.6-23.5,0.9
		c7.5-13.2,7.3-36.5,0-44.4c10.8-6.1,14.4-5.7,18.4,2C300.1,360.3,300.4,360.5,300.7,360.8z"/>
	<path class="st0" d="M803.1,575.4c9.7,15.9-3.7,34.3,8.8,49.6c-8.2-1-15.7-1-23.7,0.2c9.3-11.7,9.1-36.7-0.4-44.9
		C792.7,577.3,799,579.8,803.1,575.4z"/>
	<path class="st0" d="M671.4,551.6c4.7,0.5,6.7,3.9,6.6,7.9c-0.2,4.1-2.7,7.4-7.4,7.1c-4.1-0.3-6.1-3.6-6.1-7.3
		C664.6,555.1,666.5,551.9,671.4,551.6z"/>
	<path class="st0" d="M663.2,448.2c-0.3,4.5-2.3,8-6.7,8c-4.4,0.1-6.7-3.3-6.7-7.7c0-3.9,1.6-6.8,6-7.1
		C660.7,441,662.1,444.5,663.2,448.2z"/>
	<path class="st0" d="M440.4,456.5c-4.4-1-6.8-3.8-6.6-8.1c0.3-4.1,2.4-7.3,7.3-6.9c4.4,0.3,6,3.1,5.9,7.1
		C447,453,444.7,455.6,440.4,456.5z"/>
	<path class="st0" d="M545,335.5c-0.7,4.2-2.5,7.4-7.2,7.4c-4.4,0-6-2.8-6.1-6.9c0-4,1.7-7.1,5.7-7.6
		C542.1,327.9,544,331.5,545,335.5z"/>
</g>
</svg>
