<?xml version="1.0" encoding="utf-8"?>
<!-- Generator: Adobe Illustrator 23.0.0, SVG Export Plug-In . SVG Version: 6.00 Build 0)  -->
<svg version="1.1" id="Layer_1" xmlns="http://www.w3.org/2000/svg" xmlns:xlink="http://www.w3.org/1999/xlink" x="0px" y="0px"
	 viewBox="0 0 1000 1000" style="enable-background:new 0 0 1000 1000;" xml:space="preserve">
<style type="text/css">
	.st0{fill:#B0B0B0;}
</style>
<g>
	<path class="st0" d="M937.3,419.9c1.4,4.9,2.8,9.9,4.3,14.8c2.2,5.1,2.9,10.6,3.7,16c2.7,19,1.5,37.6-4,56
		c-5,16.7-13.4,31.4-24.6,44.7c-10.3,10.9-21.4,20.6-34.6,28c-15.7,8.9-32.5,14.6-50.3,17.3c-17,2.6-34,1.9-50.6-2.2
		c-17.7-4.3-33.8-12-47.9-23.6c-6.7-5.8-13-12-18.5-19c-13.4-17.1-21.9-36.3-26.1-57.5c-1.7-8.6-2.9-17.2-4-25.9
		c-0.2-0.6-0.4-1.1-0.1-1.7c0.4-0.5,1-0.8,1.6-0.9c11-0.3,21.9-0.1,32.9-0.1c0.2,0,0.5,0,0.7,0c6.2,0.3,5.2-0.3,5.9,5.1
		c0.1,0.4,0.1,0.8,0.1,1.2c-1.6,12.6,0.2,24.7,4.5,36.6c3.6,9.9,9,18.7,16.4,26.3c12.6,13.8,28.2,21.5,46.5,24.2
		c22.6,2.8,42.6-3,60.3-17.3c7.8-6.3,13.8-14.1,18.6-22.8c6-10.4,8.9-21.7,9.5-33.7c0.7-13.1-1.9-25.5-7.2-37.5
		c-3-6.7-7.4-12.6-11.8-18.4c-0.8-1-1.7-1.8-2.8-2.5c-1.9-1.5-3.1-3.5-3.6-5.8c0.2-2.3,2-2.1,3.4-2.1c6.2,0.1,12.4-1.1,18.7-0.8
		c16.2,0.6,32.5-1,48.7-0.7c2.8,0,5.6,0.9,8.4,0.8C936.9,418,936.9,419.1,937.3,419.9z"/>
	<path class="st0" d="M757.1,297c5.6,6.1,11.2,12.1,15.9,18.9c12.3,17.9,13.9,36.5,4.2,55.9c-1.1,2.2-2.1,4.5-3.2,6.7
		c-1.9,5.7-5.6,10.3-8.7,15.3c-8.2,12.8-16.9,25.3-23.5,39.1c-4.2,8.8-7.2,17.9-9.9,27.2c-0.6,0.8-1.3,1.3-2.4,1.1
		c-0.6-0.1-1-0.4-1.5-0.7c-9.2-5.5-17.2-12.3-23-21.5c-6-9.7-7-20.2-4.4-31c1.6-6.6,4.3-13,7.4-19c9.9-18.4,22-35.5,32.3-53.7
		c5.6-9.9,9.5-20.5,13.1-31.3c0.3-1,0.6-2,0.6-3c0-0.7,0.1-1.4,0.4-2.1C755,297.9,755.2,296.3,757.1,297z"/>
	<path class="st0" d="M720.9,263.1c5,4.9,10,9.8,14.9,14.7c3.2,3.2,5.2,7.1,6.5,11.5c2.1,8.9,0.3,17.4-3.6,25.4
		c-6.2,12.6-13.6,24.6-20.7,36.7c-3.4,5.8-6.4,11.8-9.9,17.6c-5.4,9.8-10.2,19.9-13.7,30.5c-2.5,7.3-4.3,14.9-5.4,22.6
		c-0.1,0.4-0.3,0.7-0.5,1c-1.6,2-3.5,1.8-5.3,0.4c-10.7-8.7-19.5-18.7-22.8-32.6c-0.1-5-0.2-10.1,0-15.1c0.1-4.5,1.7-8.6,2.9-12.9
		c0.1-0.4,0.2-0.7,0.4-1c2.3-2.9,2.3-6.9,4.7-9.8c0.2-0.2,0.5-0.5,0.7-0.7c1.6-0.7,1.3-2.3,1.7-3.5c0.1-0.3,0.3-0.6,0.5-0.8
		c2-1.9,3.2-4.3,3.6-7c3.3-6.2,6.8-12.4,10.5-18.4c3.3-5.4,6.8-10.7,9.8-16.3c2.6-5,5.2-10,8.4-14.7c3.4-3.1,3.8-7.7,5.6-11.5
		c1.7-3.4,2.7-7.2,3.7-10.9c0-1.6,0.9-2.9,1.3-4.4c0.1-0.5,0.1-1,0.2-1.5c0-0.5,0.1-1,0.2-1.5c0.1-0.5,0.4-1,0.9-1.2
		c0.6-0.6,1.3-0.3,1.9,0C718.9,260.3,720.1,261.5,720.9,263.1z"/>
	<path class="st0" d="M51.8,408.5c-0.2,0-0.4-0.1-0.7-0.1c0-18.4,0-36.9,0-55.3c0.2,0,0.5,0,0.7,0c1.2,1.4,1.1,3.1,1.1,4.7
		c0,15.3,0,30.7,0,46C53,405.5,53,407.2,51.8,408.5z"/>
	<path class="st0" d="M60.6,562.8c0,6.4-0.2,12.8,0.1,19.1c0.4,8.5,5.8,13.5,13.9,13.2c5.3-0.2,8.8-2.8,10.6-7.9
		c1.2-3.4,1.5-6.9,1.5-10.5c0-11,0.1-22,0-33c0-2.3,0.4-3.3,3-3.4c2.7,0,2.7,1.3,2.7,3.3c0,11.7,0,23.4,0,35.1c0,1.2,0,2.4-0.1,3.5
		c-1.3,14.4-10.5,21-24.5,17.6c-6.7-1.6-11.1-6.7-12.3-14.4c-1.1-7.3-0.5-14.6-0.6-22c-0.1-6.7,0.1-13.5-0.1-20.2
		c-0.1-2.4,0.8-2.9,3.1-2.9c2.2,0,2.8,0.7,2.8,2.8c-0.1,6.5,0,13,0,19.5C60.5,562.8,60.5,562.8,60.6,562.8z"/>
	<path class="st0" d="M459.7,465.2c4.9-4.9,10.1-6.2,15.8-5.8c8.2,0.6,13,4.7,14.8,12.8c0.7,3,0.9,6.1,0.9,9.1
		c0,6.7,0,13.5,0.1,20.2c0,2,0,3.3-2.7,3.3c-2.5,0-2.9-1-2.9-3.1c0-8.1,0.4-16.3-0.3-24.4c-0.7-8.9-4.5-12.6-12.6-12.5
		c-7.9,0.1-12.8,5.1-13,13.3c-0.2,7.7-0.1,15.4-0.1,23c0,2.1,0.3,3.8-2.9,3.8c-3.1,0-2.7-1.7-2.7-3.6c0-17.4,0-34.7,0-52.1
		c0-2.2,0.2-3.4,2.9-3.4c2.6,0,2.8,1.2,2.7,3.3C459.6,454,459.7,459.1,459.7,465.2z"/>
	<path class="st0" d="M113,559.3c6.8-5.9,14.2-6.7,22-3.5c6,2.5,8.7,7.6,8.9,13.8c0.3,9.2,0.2,18.4,0.3,27.6c0,2.5-1.4,2.2-3,2.2
		c-1.6,0.1-2.7-0.1-2.7-2.2c0.1-7.2,0-14.4,0-21.6c0-1.3,0-2.6-0.1-3.9c-0.6-8.3-4.4-12.1-12.1-12.2c-8.1,0-13.2,4.4-13.5,12.3
		c-0.3,8.1-0.2,16.3-0.2,24.5c0,2.1-0.2,3.2-2.8,3.2c-2.6,0-2.8-1.1-2.8-3.2c0.1-12.6,0-25.3,0-37.9c0-1.9-0.4-3.7,2.7-3.7
		c2.9,0,3,1.4,2.9,3.5C112.7,558.4,112.8,558.7,113,559.3z"/>
	<path class="st0" d="M423.4,505.9c-10.8,0-20-7.5-22.3-18.2c-2.4-11.1,3.1-22.2,13.2-26.8c9.6-4.4,21-1.4,27.3,7.1
		c0.3,0.4,0.7,0.7,0.8,1.2c0.4,1.5,2.9,3.4,1.2,4.3c-1.8,0.9-4.5,1.2-6.5-1.6c-5.4-7.9-15.2-9.9-22.7-4.9c-7.6,5-10.2,16.6-5.5,25
		c4.4,7.9,13.8,10.7,22.1,6.7c2.4-1.2,4.6-2.7,5.7-5.1c1.3-2.6,3.2-2.9,5.7-2.9c2.2,0.1,1.9,0.9,1.3,2.4
		C440.6,500.9,432.7,505.9,423.4,505.9z"/>
	<path class="st0" d="M564.1,505.8c-7.5,0-12.9-4.9-13.7-12.5c-0.1-1.1-0.7-2.7,1.3-2.5c1.5,0.2,3.8-1.3,4.4,1.4
		c0.5,2.3,1.1,4.3,2.8,6c2.4,2.3,5.1,2.8,8.2,1.8c2.8-0.9,4.6-2.9,4.9-5.9c0.4-3.2-0.5-6-3.4-7.6c-3.2-1.7-6.7-3-9.9-4.6
		c-7-3.5-8.8-12.2-3.7-18.2c3.7-4.3,8.5-5.4,13.8-4.2c4.6,1,7.4,4,8.4,8.6c0.2,1.1,1.4,2.9-0.7,3.1c-1.7,0.1-4.2,1.5-5.1-1.4
		c-1-3.2-3-5-6.4-5c-3.2,0-5.5,1.5-6.4,4.6c-0.9,3-0.3,5.6,2.5,7.5c2.3,1.5,5,2.2,7.5,3c7.5,2.5,10.8,7.8,9.7,15.1
		C577.2,501.4,571.5,505.8,564.1,505.8z"/>
	<path class="st0" d="M565.8,553.8c6.2,0,10.5,3,11.9,8.5c0.3,1.1,1.7,3.2-0.5,3.4c-1.7,0.2-4.4,1.8-5.4-1.8
		c-1.1-3.8-4.7-5.4-8.5-4.3c-3.2,0.9-5,4.3-4.3,7.9c0.4,2.2,1.9,3.6,3.8,4.4c2.3,1,4.6,1.7,7,2.6c6.9,2.5,10.1,7.5,9.2,14.5
		c-0.8,6.2-5.6,10.6-12.3,11.3c-7.1,0.8-12.6-2.6-14.8-8.9c-0.3-0.8-0.6-1.6-0.6-2.4c0-1.3-1.7-3.3,1-3.6c2-0.2,4.4-1.1,4.8,2.7
		c0.6,5,4.8,7.7,9.4,6.9c4.1-0.7,6.7-4.3,6.1-8.5c-0.4-2.9-2.1-4.7-4.5-5.9c-2.6-1.2-5.2-2.2-7.8-3.4c-6.3-3-8.7-7.5-7.3-13.6
		C554.3,557.8,559.5,553.8,565.8,553.8z"/>
	<path class="st0" d="M318.6,553.8c6.4,0,10.8,3.1,12.1,8.7c0.2,1.1,1.7,3.1-0.8,3.3c-1.7,0.1-4.1,1.5-5.2-1.8
		c-1.6-5-8-6.3-11.3-2.5c-2.8,3.2-2.1,7.8,1.6,10.1c2.2,1.4,4.8,2,7.2,2.8c7.7,2.6,11,8,9.5,15.5c-1.4,6.8-7.5,11.1-15.1,10.5
		c-7-0.5-12.2-5.9-12.7-13c-0.1-1.2,0-2.3,1.5-2.1c1.5,0.3,3.8-1.3,4.3,1.6c0.3,1.8,0.9,3.4,2,4.9c2.1,2.9,5.1,3.8,8.5,3
		c3-0.7,5-2.7,5.5-5.8c0.6-3.5-0.6-6.4-3.8-8.1c-2.7-1.4-5.6-2.5-8.4-3.7c-6.3-2.9-8.7-7.4-7.4-13.6
		C307.2,557.9,312.4,553.9,318.6,553.8z"/>
	<path class="st0" d="M295.2,371c4.5-4.3,9.6-5.6,15.2-5.1c7.8,0.7,13,5.4,14,13.1c1.2,9.3,0.3,18.7,0.5,28c0.1,2.4-1.7,1.7-3,1.8
		c-1.6,0.2-2.3-0.4-2.3-2.1c0.1-6.4,0.1-12.8,0-19.1c0-1.9,0-3.8-0.2-5.7c-0.9-7.7-4.7-11-12.1-10.9c-7,0.1-11.8,4.4-12.1,11.3
		c-0.4,7.8-0.2,15.6-0.2,23.4c0,2.1-0.2,3.3-2.8,3.2c-2.5-0.1-2.5-1.3-2.5-3.1c0-11.6,0-23.2,0.1-34.8c0-1.6-1.5-4.1,2.1-4.5
		C295.4,366.1,295,368.4,295.2,371z"/>
	<path class="st0" d="M362.7,365.6c6,0,10.3,3.3,11.3,8.7c0.2,0.9,1.3,2.7-0.7,2.8c-1.6,0.1-3.7,1.2-4.7-1.1
		c-0.5-1.2-0.9-2.5-1.8-3.4c-2.4-2.4-7.1-2.2-9.3,0.3c-2.3,2.7-2,7,0.9,9.1c2.1,1.6,4.7,2.2,7.1,3c7.4,2.4,10.7,7.4,9.5,14.4
		c-1.1,6.6-6.9,10.8-14.3,10.4c-6.5-0.4-11.6-5.4-12.2-12.1c-0.1-1.1-0.2-2.4,1.4-2.1c1.5,0.3,3.8-1.4,4.2,1.6
		c0.3,2.1,1.1,3.8,2.6,5.3c2.3,2.2,4.9,2.7,7.8,1.7c2.6-0.8,4.2-2.6,4.6-5.3c0.5-3.1-0.4-5.6-3.1-7.4c-2.6-1.7-5.6-2.5-8.4-3.8
		c-6.1-2.9-8.5-7.4-7-13.4C351.9,369.2,356.9,365.6,362.7,365.6z"/>
	<path class="st0" d="M194.7,590.2c4.5-11.2,8.8-22,13.2-32.8c0.4-1,0.5-2.5,2-2.6c1.5,0,3.4-0.7,4.4,0.3c1,1-0.4,2.4-0.9,3.5
		c-5.1,12.7-10.4,25.3-15.5,38c-0.8,2-1.7,2.7-3.9,2.7c-2.1,0-2.8-1-3.5-2.7c-5-12.9-10-25.7-15-38.6c-0.4-1-2.1-2.6-0.1-3.1
		c1.7-0.4,4.3-1.4,5.5,1.5c1.9,4.9,3.9,9.9,5.9,14.8c2.3,5.8,4.6,11.6,6.9,17.5C193.9,589.2,194.2,589.5,194.7,590.2z"/>
	<path class="st0" d="M374.6,580c0,5.4-0.1,10.9,0,16.3c0,2.1-0.3,3.2-2.8,3.2c-2.4,0-3-0.8-2.9-3.1c0.1-10.2,0.1-20.3,0.1-30.5
		c0-5.2,0-5.4-5.2-5.2c-2.7,0.1-3.5-0.8-3.3-3.4c0.1-1.8,0.6-2.4,2.4-2.5c6.1-0.3,6.1-0.3,6.1-6.5c0-1.5,0.1-3.1,0-4.6
		c-0.2-2.3,0.3-3.4,3-3.4c2.7,0,2.8,1.3,2.7,3.3c-0.1,1.3,0,2.6,0,3.9c0.1,2.2-0.6,4.9,0.4,6.6c1.1,1.7,3.9,0.6,6,0.6
		c2.6,0,2,1.7,2.1,3.2c0.1,1.5,0.1,2.6-2.1,2.7c-6.4,0.3-6.4,0.4-6.4,6.9C374.6,571.7,374.6,575.9,374.6,580z"/>
	<path class="st0" d="M187.8,390.1c0-5.3-0.1-10.6,0-15.9c0.1-2.2-0.6-3-2.8-2.8c-1.6,0.2-3,0.2-3-2.2c0-2.1,0.9-2.8,2.7-2.5
		c2.3,0.4,2.6-0.8,2.8-2.8c0.8-7.6,4.8-11.3,11.9-11.4c1.2,0,2.5-0.1,2.3,1.7c-0.1,1.4,0.6,2.9-1.9,3.3c-5.1,0.8-6.5,2.5-6.9,6.5
		c-0.2,1.9,0.2,3,2.4,2.7c1.2-0.1,2.4,0,3.5,0c1.7-0.1,3-0.1,3,2.3c0,2.2-0.9,2.5-2.8,2.5c-6.1,0.1-6.1,0.1-6.1,6.1
		c0,9.2,0,18.4,0,27.6c0,1.7,0.7,3.7-2.5,3.8c-3.5,0.1-2.7-2.1-2.7-3.9C187.8,400,187.8,395,187.8,390.1
		C187.8,390.1,187.8,390.1,187.8,390.1z"/>
	<path class="st0" d="M334.6,465.2c2.8-2.9,4.8-4.8,7.6-5.2c1-0.2,2.7-1.1,2.8,0.7c0.1,1.7,1.5,4.7-1.2,5.2
		c-7.6,1.3-8.7,6.6-8.7,12.8c0,7.7-0.1,15.4,0,23c0,2.2-0.4,3.2-2.9,3.1c-2.4,0-3-0.8-3-3.1c0.1-12.4,0-24.8,0.1-37.2
		c0-1.5-1.6-4.1,2.1-4.4C335,459.8,335.3,461.6,334.6,465.2z"/>
	<path class="st0" d="M285.8,559.3c2.6-2.3,4.5-4.2,7.3-4.7c1-0.1,2.7-1.1,2.8,0.8c0.1,1.7,1.4,4.1-1.3,5.2c-7.5,3-8.5,4.4-8.6,12.5
		c-0.1,7.4,0,14.9,0,22.3c0,2.1,0.6,4.2-3,4.1c-3.4-0.1-2.8-2-2.8-3.9c0-12.2-0.1-24.3,0.1-36.5c0-1.6-1.4-4.1,2.3-4.3
		C286,554.5,285.8,556.5,285.8,559.3z"/>
	<path class="st0" d="M456.8,559.1c2.1-1.9,4-4,7-4.5c1-0.2,2.8-1,2.9,0.8c0.1,1.7,1.5,4.1-1.2,5.2c-7.6,3.1-8.5,4.2-8.6,12.4
		c-0.1,7.8-0.1,15.6,0,23.4c0,2.3-0.5,3-3,3.1c-2.5,0-2.9-1-2.9-3.1c0.1-12.6,0-25.3,0.1-37.9c0-1.6-0.9-3.6,2.2-3.7
		c3.1-0.1,3.3,1.4,3.1,3.6C456.3,558.5,456.5,558.7,456.8,559.1z"/>
	<path class="st0" d="M469.1,371.4c2.7-2.8,4.6-4.4,7.1-5c1.1-0.2,2.9-1.4,2.9,0.9c0,1.6,1.4,3.9-1.4,4.8c-6.6,2.2-7.9,4.1-8,11
		c-0.1,7.6-0.1,15.1,0,22.7c0,1.9-0.2,3.1-2.6,3c-2.3,0-3-0.6-3-3c0.1-11.7,0-23.4,0.1-35.1c0-1.5-1.5-3.9,2-4.3
		C469.4,366.2,469.7,367.9,469.1,371.4z"/>
	<path class="st0" d="M159,576.7c0-6.4,0.1-12.7,0-19.1c0-2.1,0.4-2.9,2.7-2.9c2.2,0,3.1,0.4,3.1,2.9c-0.1,13-0.1,25.9,0,38.9
		c0,2.5-1,2.8-3.1,2.9c-2.3,0.1-2.7-0.8-2.7-2.9C159,590,159,583.4,159,576.7z"/>
	<path class="st0" d="M350.3,577.2c0,6.5-0.1,13,0,19.5c0,2.2-0.8,2.8-2.9,2.8c-1.9,0-3-0.3-3-2.6c0.1-13.1,0.1-26.2,0-39.3
		c0-2.2,0.8-2.7,2.9-2.8c2.3,0,3.1,0.6,3,3C350.2,564.2,350.3,570.7,350.3,577.2z"/>
	<path class="st0" d="M477.4,577.3c0-6.6,0.1-13.2-0.1-19.8c0-2.2,0.7-2.8,2.8-2.8c2,0,3,0.4,3,2.7c-0.1,13.1-0.1,26.2,0,39.2
		c0,2.3-0.8,2.8-2.9,2.7c-2,0-3-0.3-2.9-2.7C477.5,590.3,477.4,583.8,477.4,577.3z"/>
	<path class="st0" d="M501.6,387.9c0-6,0-12,0-18c0-1.9-0.1-3.4,2.6-3.3c2.5,0,2.9,1,2.9,3.1c-0.1,12.2-0.1,24.3,0,36.5
		c0,2.3-0.8,2.7-2.9,2.8c-2.3,0.1-2.7-0.9-2.7-2.9C501.7,399.9,501.6,393.9,501.6,387.9z"/>
	<path class="st0" d="M186,505.2c-4.4,0-7.8-2.7-8.4-7c-0.1-0.9-0.5-2,0.9-2.1c1-0.1,2.1-0.3,2.5,1.3c0.2,0.9,0.6,1.8,1.1,2.6
		c1.2,1.7,2.9,2.4,4.9,2c1.9-0.4,3.2-1.6,3.6-3.5c0.5-2.2-0.4-4-2.3-5.1c-2-1.1-4.1-1.8-6.1-2.8c-3.2-1.6-4.2-4.3-3.6-7.7
		c0.6-3.3,3.5-5.8,6.9-6.1c3.6-0.3,6.7,1.2,7.8,4.2c0.4,1,1.4,2.4-0.1,3.1c-1.3,0.6-2.6,0.4-3.4-1.5c-0.9-2.4-3.1-2.8-5.3-2.1
		c-2.1,0.7-2.6,2.5-2.3,4.6c0.2,1.5,1.2,2.3,2.4,2.8c1.4,0.6,2.9,1.1,4.3,1.7c4.3,1.7,6.1,4.8,5.4,9.1
		C193.8,502.6,190.4,505.2,186,505.2z"/>
	<path class="st0" d="M138.6,486.9c0,5.1,0,10.1,0,15.2c0,1.4,0.1,2.6-1.9,2.6c-1.8-0.1-1.7-1.3-1.7-2.5c0-10.4,0-20.8,0-31.2
		c0-1.3-0.1-2.6,1.9-2.6c1.9,0.1,1.6,1.3,1.6,2.5C138.6,476.2,138.6,481.5,138.6,486.9z"/>
	<path class="st0" d="M499.9,360.4c2.3-3.8,4.6-7.7,6.9-11.5c1.5-2.5,3.8-0.8,6-1.1c-4.1,4.4-5.8,11.1-11.9,13.5
		C500.5,361,500.2,360.7,499.9,360.4z"/>
	<path class="st0" d="M344.6,544.5c0.6-1.3-1.6-4,2.2-4.1c2.7-0.1,4.1,0.5,3.6,3.5c-0.1,0.7,0,1.4,0,2.1c0,2,0.5,3.9-2.8,3.9
		c-3.1,0-3.2-1.5-3-3.7C344.6,545.7,344.6,545.2,344.6,544.5z"/>
	<path class="st0" d="M164.7,545.3c-0.8,1.2,1.7,4.2-2.3,4.4c-2.6,0.1-4-0.5-3.5-3.4c0.1-0.7,0-1.4,0-2.1c0-1.9-0.5-3.8,2.8-3.9
		c3.5-0.1,3.1,1.9,3,4C164.7,544.6,164.7,544.8,164.7,545.3z"/>
	<path class="st0" d="M477.4,544.9c0.9-1.2-1.6-3.9,1.8-4.4c2.8-0.4,4.6,0.3,4,3.6c-0.1,0.7-0.1,1.4,0,2.1c0.3,2.3-0.2,3.6-3.1,3.6
		c-3,0-2.7-1.7-2.7-3.6C477.4,545.9,477.4,545.5,477.4,544.9z"/>
	<path class="st0" d="M268.8,466.3c-3.6-12.7-12.9-20-26.2-20.4c-5.7-0.2-11.4,0-17-0.2c-2.4-0.1-2.9,0.8-2.9,3
		c0.1,8.7,0,17.5,0,26.2c0,8.9,0.1,17.7,0,26.6c0,2.2,0.4,3.2,2.9,3.1c4.5-0.2,9,0,13.5-0.1c5.3-0.2,10.7-0.3,15.6-2.7
		C266.8,495.8,272.9,480.6,268.8,466.3z M261.7,486.5c-2.7,6.7-7.9,10.7-15.1,12.1c-5.4,1-10.8,0.5-16.2,0.6
		c-2.2,0.1-2.1-1.3-2.1-2.8c0-7.2,0-14.4,0-21.6c0,0,0,0,0,0c0-6.8,0.1-13.7,0-20.5c0-2.1,0.5-3,2.7-2.9c3.8,0.2,7.6,0,11.3,0.2
		c11.6,0.5,19,7,21,18.6C264.3,475.7,263.8,481.3,261.7,486.5z"/>
	<path class="st0" d="M357.5,484.2c5.8,0.1,11.6,0,17.4,0c5.9,0,11.8,0,17.7,0c1.8,0,2.5-0.4,2.5-2.4c-0.2-12-9.1-21.9-20.6-22.8
		c-12.7-1-23.1,6.8-25.2,18.9c-2,11.5,4.2,22.6,14.7,26.6c10.3,3.9,21.6-0.1,27.3-9.7c0.7-1.2,2.4-2.6,1.5-3.7
		c-1.1-1.4-3.3-0.5-5-0.5c-1.4,0-1.6,1.6-2.2,2.5c-4.4,5.9-10.3,8.3-17.4,6.8c-7.1-1.4-11.2-6-13-13
		C354.7,485,355.1,484.1,357.5,484.2z M355.6,476.6c2-7.7,8.4-12.4,16.8-12.2c7.9,0.2,14.4,5.6,15.9,13.1c0.4,1.9-0.5,1.9-1.8,1.9
		c-4.8,0-9.7,0-14.5,0c-4.7,0-9.4-0.1-14.1,0C355.6,479.5,355,478.9,355.6,476.6z"/>
	<path class="st0" d="M284.9,484.2c5.5,0.3,11.1,0.1,16.7,0.1c5.9,0,11.8-0.1,17.7,0c1.8,0,2.5-0.5,2.5-2.4
		c0-11.7-8.7-21.5-20.2-22.8c-12.4-1.4-23,6.3-25.4,18.2c-2.3,11.7,3.9,23.3,14.6,27.3c10.3,3.9,21.7-0.2,27.3-9.7
		c0.7-1.2,2.3-2.6,1.5-3.7c-0.8-1.3-2.8-0.3-4.3-0.5c-2.1-0.3-2.3,1.7-3.2,2.8c-4.3,5.8-10.2,8-17.1,6.6c-6.8-1.3-11-5.6-12.9-12.2
		C281.4,485.3,281.6,484,284.9,484.2z M282.4,476.4c2.3-7.7,8.4-12.2,16.7-12c7.9,0.2,13.9,5.1,15.9,12.7c0.6,2.2-0.3,2.4-2.1,2.3
		c-4.8-0.1-9.7,0-14.5,0c0,0,0,0,0,0c-4.6,0-9.2-0.1-13.8,0.1C281.9,479.6,281.8,478.6,282.4,476.4z"/>
	<path class="st0" d="M436.5,557.9c0-2.1-0.2-3.2-2.8-3.2c-2.4,0.1-3.2,0.9-2.9,3.1c0.1,0.9,0,1.9,0,3.3c-11.8-9.3-24-9.5-32.7-1
		c-8.4,8.2-9.6,21.5-2.7,31.1c4.2,5.8,10,8.8,17.2,9.2c7,0.4,13-2.2,18.3-7.6c0,1.6,0.1,2.4,0,3.2c-0.2,2.2,0.2,3.4,2.9,3.4
		c2.7,0,2.7-1.4,2.7-3.3C436.4,583.4,436.4,570.7,436.5,557.9z M413.9,595.2c-9.5,0-17-7.8-17-17.7c0-10.3,7.7-18.4,17.2-18.3
		c9.1,0.1,16.7,8.2,16.7,17.7C430.8,587,423.2,595.2,413.9,595.2z"/>
	<path class="st0" d="M231.2,578.9c5.7,0.1,11.3,0,17,0c5.9,0,11.8-0.1,17.7,0c1.9,0,2.3-0.6,2.3-2.5c-0.2-11.9-9.1-21.9-20.2-22.7
		c-13.4-1-23.4,6.6-25.5,19.2c-1.8,11.3,4.4,22.3,14.8,26.2c10.3,3.9,21.5-0.1,27.3-9.7c0.7-1.2,2.3-2.7,1.4-3.7
		c-1.1-1.4-3.3-0.6-5-0.4c-1.4,0.1-1.7,1.9-2.4,2.9c-4.4,5.8-10.3,7.8-17.2,6.5c-6.9-1.4-11.1-5.9-12.9-12.7
		C227.8,579.5,228.6,578.8,231.2,578.9z M228.7,571.6c1.8-7.6,8.5-12.8,16.6-12.6c8.2,0.2,14.7,5.6,16.2,13.2
		c0.4,1.9-0.6,1.9-1.9,1.9c-4.8,0-9.7,0-14.5,0c0,0,0,0,0-0.1c-4.8,0-9.7,0-14.5,0C228.8,574.2,228.2,573.6,228.7,571.6z"/>
	<path class="st0" d="M67.8,353c-5.3,0.2-10.6,0.1-15.9,0.2c0,18.5,0,36.9-0.1,55.4c6.4,0.5,12.7,0.3,19.1,0
		c12.4-0.5,21.3-7.8,24.4-19.9C99.2,373.1,90.7,352.1,67.8,353z M80.4,400.7c-4.8,2.8-10.1,3-14.5,2.8c-9.1,0-9.1,0-9.1-8.2
		c0-11.3,0.1-22.7-0.1-34c0-2.5,0.7-3.3,3.2-3.1c3.8,0.2,7.6-0.1,11.3,0.2c9.8,0.8,16.2,6.5,18.5,16.1
		C92.2,385.4,88.4,396.1,80.4,400.7z"/>
	<path class="st0" d="M230.6,389.4c5.4,0.1,10.9,0,16.3,0c5.6,0,11.1,0,16.7,0c1.7,0,2.5-0.2,2.5-2.3c-0.1-11.3-8.4-20.5-19.5-21.6
		c-11.1-1.1-21,5.7-23.6,16.1c-2.7,11.1,2.7,22.5,12.5,26.6c10.4,4.4,21.5,0.7,27.3-9.1c0.6-1,2.4-2.7,0.8-3.4
		c-1.5-0.6-4-1.2-5.5,0.7c-0.7,0.8-1.1,1.8-1.8,2.6c-4.4,5.2-10.1,6.7-16.6,5.1c-6.2-1.6-9.7-5.9-11.3-11.9
		C227.7,390.1,228.2,389.3,230.6,389.4z M228.6,382.2c1.8-7.2,8.2-11.9,16.1-11.6c7.5,0.3,13.5,5.3,14.9,12.3c0.3,1.7-0.2,2.1-1.7,2
		c-4.6-0.1-9.2,0-13.8,0c-4.5,0-9-0.1-13.4,0C228.4,385,228.1,384.2,228.6,382.2z"/>
	<path class="st0" d="M126.9,389.3c10.6,0.2,21.3,0,31.9,0.1c2.6,0,3.2-0.9,2.9-3.3c-0.5-4.3-1.6-8.4-4.1-11.9
		c-5.3-7.4-12.8-9.8-21.5-8.4c-8.4,1.4-14.3,6.2-16.8,14.4c-2.8,9-1.1,17.1,5.8,23.8c11.3,10.9,30.9,6.3,34.8-8.2
		c-3.2-0.7-5.5-0.4-7.7,2.9c-3.7,5.5-9.6,7.1-16,5.8c-6.4-1.3-10.3-5.4-12-11.6C123.4,390.2,123.9,389.3,126.9,389.3z M124.5,381.6
		c2.1-7.1,8.3-11.4,16.1-11c7.3,0.3,13.1,5.2,14.7,12.1c0.4,1.9-0.3,2.2-1.9,2.2c-4.6-0.1-9.2,0-13.8,0c-4.2,0-8.5-0.2-12.7,0.1
		C124,385.1,123.8,383.9,124.5,381.6z"/>
	<path class="st0" d="M574.2,405.4c0-11.9,0-23.8,0-35.8c0-1.8,0.1-3.1-2.5-3.1c-2.6,0-3,1.1-2.8,3.2c0.1,0.8,0,1.6,0,3
		c-10.8-8.9-22.7-9.1-31.1-1c-8.1,7.8-9,21.2-2.1,30.1c3.3,4.2,7.7,7,13,7.8c7.7,1.2,14.3-0.9,20.2-7c0,1.4,0.1,2.1,0,2.8
		c-0.2,2.1-0.1,3.5,2.8,3.5C574.7,408.8,574.2,407.1,574.2,405.4z M552.6,404.9c-9-0.1-15.9-7.5-15.9-16.9c0-9.7,7.3-17.3,16.4-17.2
		c8.5,0.1,15.8,7.8,15.8,16.7C568.9,397.1,561.5,405,552.6,404.9z"/>
	<path class="st0" d="M518.3,553.5c-12.4-0.2-22.7,10.4-22.8,23.6c-0.1,12.9,10.1,23.4,22.8,23.5c12.7,0.1,22.9-10.5,23-23.8
		C541.4,564,531.2,553.7,518.3,553.5z M518.4,595.1c-9.7,0-17-7.7-16.9-18c0-10.4,7.2-18.2,16.8-18.2c9.9,0,17.1,7.6,17.1,18.2
		C535.3,587.5,528.1,595.1,518.4,595.1z"/>
	<path class="st0" d="M521.7,458.8c-12.3,0-22.5,10.6-22.6,23.4c0,13.3,10.1,23.6,23.1,23.6c12.7,0,22.7-10.5,22.7-23.6
		C545,469,534.9,458.9,521.7,458.8z M522.3,500.5c-9.8,0-17.1-7.7-17.1-18.2c0-10.2,7.1-17.9,16.5-17.9c10.1,0,17.4,7.5,17.4,17.9
		C539.1,492.5,531.8,500.5,522.3,500.5z"/>
	<path class="st0" d="M418.6,365.3c-11.9-0.1-21.6,9.9-21.7,22.5c-0.1,12.4,9.6,22.2,21.8,22.2c12.1,0,21.7-10.1,21.7-22.8
		C440.5,375.3,430.6,365.4,418.6,365.3z M418.8,404.8c-9.3,0-16.3-7.5-16.2-17.4c0.1-9.5,7.1-17,15.9-17c9.4,0,16.4,7.3,16.3,17.2
		C434.8,397.4,427.9,404.8,418.8,404.8z"/>
	<path class="st0" d="M80.4,471.6c0-1.2,0.9-3.1-1.6-3.1c-2.7-0.1-1.8,1.9-1.8,3.3c-0.1,2.9,0,5.8,0,8.9c-8.7-5.5-15.9-5.1-21,0.8
		c-4.5,5.2-4.4,13.7,0.1,18.9c5.1,5.9,12.2,6.3,20.5,1c0.6,1.4-0.1,3.3,2.2,3.1c2.4-0.2,1.6-2,1.6-3.2
		C80.4,491.5,80.4,481.6,80.4,471.6z M66.6,502.1c-5.8-0.1-10.4-5-10.5-11.2c0-6.2,4.6-11,10.5-10.9c5.7,0,10.4,5.2,10.3,11.3
		C77,497,72.1,502.1,66.6,502.1z"/>
	<path class="st0" d="M92.5,492c3.3,0.1,6.6,0,9.9,0c3.3,0,6.6-0.1,9.9,0c1.8,0.1,2.5-0.5,2.3-2.4c-0.6-7-5.6-12.4-12.3-13.1
		c-7.5-0.7-13.8,3.6-15.5,10.6c-1.7,7.1,1.8,14.2,8.2,17c6.3,2.7,13.7,0.4,17.3-5.6c0.4-0.7,1.6-1.7,0.6-2.4
		c-0.9-0.7-2.3-0.6-3.3,0.2c-0.8,0.7-1.3,1.7-2,2.5c-5.4,5.5-14.9,3.2-17.2-4.1C90,492.9,90.1,491.9,92.5,492z M90.8,486.6
		c1.5-4.2,5.2-6.8,9.8-6.7c4.9,0.1,8.5,2.8,9.8,7.2c0.5,1.7-0.1,2.1-1.6,2.1c-2.8-0.1-5.7,0-8.5,0c-2.6,0-5.2-0.1-7.8,0
		C90.3,489.2,90.1,488.3,90.8,486.6z"/>
	<path class="st0" d="M158.6,476.5c-7.7,0.1-13.8,6.5-13.7,14.6c0.1,8.1,6.2,14.2,14.1,14.2c7.9,0,14-6.4,13.9-14.8
		C172.9,482.7,166.5,476.4,158.6,476.5z M158.7,502c-5.9-0.1-10.4-4.9-10.3-11.2c0.1-6.3,4.6-11.1,10.5-11c6,0.1,10.4,4.9,10.3,11.2
		C169.2,497.4,164.6,502.1,158.7,502z"/>
	<path class="st0" d="M835.8,481.6c3.4,2.8,6.5,5.8,9.2,9.2c10.6,12.8,7.3,31.4-1.5,41.5c-6.6,7.6-14.9,11.8-24.7,12.4
		c-8.8,0.6-17.1-2-24-8c-6.6-5.8-11-12.7-12.6-21.5c-2.6-14.1,5.9-30.3,18.9-36.3c6.6-3,13.3-3.7,20.3-3.3
		C826.9,476.3,831.7,478.2,835.8,481.6z"/>
	<path class="st0" d="M849.3,373.7c3.1,1.7,6.1,3.3,9.2,5c4.9,2,8.9,5.5,13.2,8.5c7.1,5,12.9,11.4,18.9,17.5
		c0.2,0.3,0.5,0.5,0.7,0.8c0.8,1.4,2.3,2.8,1.6,4.5c-0.8,1.9-2.8,1.5-4.4,1.5c-9.4,0.1-18.9,0-28.3,0c-3.1,0-6.1,0.1-9.2,0.5
		c-3.7,0.5-7.1,0.1-10.6-1.8c-10.1-5.4-21.1-7-32.4-8.1c-5-0.4-9.9-0.1-14.8,0.2c-3.8,0.3-4.1,0.1-4.5-3.9
		c0.3-8.9-1.1-17.6-0.8-26.5c0.1-2.1-0.1-4.2,0-6.4c0.2-4.5,0.7-5,5.3-5.1c3.3,0,6.6,0,9.9,0C819.4,361.8,835,365.8,849.3,373.7z"/>
	<path class="st0" d="M748.6,588.8c10.1,5.4,20.9,9.3,31.9,12.4c11,3.2,22.3,4.6,33.8,4.6c14.4,0,28.3-2.6,42.1-6.4
		c5.1-1.4,10.2-2.8,15-5c0.6,0,1.1,0.1,2.1,0.2c-2.1,1.7-3.9,3.2-5.7,4.7c-5.7,3.3-11.4,6.7-17.2,9.8
		c-20.2,10.8-41.9,15.5-64.7,13.7c-12.2-0.9-24.2-3.6-36-6.6c-1.1-0.3-2.5-0.7-2.5-2.1c-0.4-7.5-1.5-15-0.4-22.5
		C747,590.4,746.8,588.8,748.6,588.8z"/>
</g>
</svg>
