<svg id="Capa_1" data-name="Capa 1" xmlns="http://www.w3.org/2000/svg" viewBox="0 0 125.65 113.46"><defs><style>.cls-1{fill:#23374d;}</style></defs><title>flama-gris</title><path class="cls-1" d="M59.74,113.46h60.47a48.65,48.65,0,0,0,5.44-23.13A53.21,53.21,0,0,0,110,53L92.76,36.25a27.42,27.42,0,0,1,.55,6.69A48.3,48.3,0,0,1,86.63,68Z"/><path class="cls-1" d="M48.41,113.46,78.25,63a41.5,41.5,0,0,0,5.6-20.06c0-11.15-5-21.19-12.28-28.44L57.63,0c0,8.93-2.79,16.74-7.25,24L5.22,100.36A50.17,50.17,0,0,0,0,113.46Z"/></svg>