<?xml version="1.0" encoding="utf-8"?>
<!-- Generator: Adobe Illustrator 23.0.0, SVG Export Plug-In . SVG Version: 6.00 Build 0)  -->
<svg version="1.1" id="Layer_1" xmlns="http://www.w3.org/2000/svg" xmlns:xlink="http://www.w3.org/1999/xlink" x="0px" y="0px"
	 viewBox="0 0 1000 1000" style="enable-background:new 0 0 1000 1000;" xml:space="preserve">
<style type="text/css">
	.st0{fill:#B0B0B0;}
</style>
<g>
	<path class="st0" d="M500.3,28.6c262.3,1.5,475.6,211.9,474.3,478c-1.2,260.9-212.5,475.1-480.7,472.3
		C235.5,976.2,22.6,767,24.6,499.8C26.5,239.6,236.3,29.7,500.3,28.6z M499.5,45.7C247.9,45.7,42.8,250.1,41,499.4
		c-1.8,256.2,206.6,463.5,458.6,462.8C752.5,961.5,957,757.5,958,505.6C959,251.8,751.8,44.5,499.5,45.7z"/>
	<path class="st0" d="M810.1,503.9c-1.2,171.9-138.7,310.7-311.5,310.3c-170.6-0.4-310.2-137.8-309.4-312.1
		c0.8-170.9,138.9-308.9,311.2-308.5C671.8,194,808.9,332.1,810.1,503.9z M736.1,505.7c0-3,0.2-6.1,0-9.1
		c-2.4-30.4-13.4-55.4-43.4-68.4c-23.9-10.4-48.7-12.7-74-7c-28.6,6.5-50.2,21.7-58.5,51.2c-5.1,18.3-6.1,37-2.8,56
		c4.5,25.3,17.8,43.5,41,54.4c22.5,10.6,46,12.9,70.3,8.4c15.8-2.9,30.5-8.3,42.6-19.3C731,554.1,735.4,530.6,736.1,505.7z
		 M509.3,432c-2.8-1.4-4.6-2.4-6.5-3.3c-28.6-12.9-57.2-15-86-0.7c-29.1,14.4-30.7,57.7-11.9,76.3c11.8,11.6,26.3,17.1,41.5,21.8
		c15.9,4.9,31.9,9.8,47.8,14.9c1.9,0.6,4.5,3.1,4.5,4.6c-0.1,1.8-2.5,4.4-4.4,4.9c-22.7,6.1-49.4-0.8-62.9-18.4
		c-2.1-2.8-6-5.5-9.3-5.8c-9-0.8-18-0.3-28.8-0.3c0,13.9,0,26,0,38.1c0,25.6,0,25.4,25.8,25.6c7.9,0.1,14.7,0,13.8-11.2
		c4.3,2.1,7.5,3.9,10.8,5.3c24.1,10.1,48.8,12.7,73.8,4.2c20.6-7,32.8-22,35.2-43.6c2.2-19.1-5.8-35.2-21.4-45.6
		c-10.6-7.1-23.3-11.2-35.5-15.5c-14-4.9-28.5-8.4-42.6-13c-3-1-5.2-4.3-7.7-6.5c2.9-2.3,5.7-4.6,8.8-6.7c0.9-0.6,2.4-0.5,3.6-0.4
		c19,1.7,37.5,4.7,50.9,20.6c1.8,2.1,4.9,4.3,7.4,4.4c8.5,0.5,17.1,0.4,25.6-0.2c2-0.1,5.6-2.9,5.6-4.5c0.4-17.9,0.3-35.7,0.3-54
		c-13.4,0-24.9,0-36.5,0C510.3,426.2,509.9,428.6,509.3,432z M384.9,420.5c-36.2,0-71.3,0-106.8,0c0,14.2,0,27.5,0,41.9
		c4.7,0,8.9,0.2,13.1,0c7.6-0.3,10.6,2.6,10.4,10.7c-0.6,18-0.2,36-0.2,54c0,6.6,0,13.2,0,20c-8.6,0.4-15.9,0.8-24.9,1.2
		c0,10.3,0.4,19.9-0.1,29.5c-0.4,8.7,2.2,12.4,11.8,12.3c28.7-0.6,57.3-0.2,86-0.2c3.3,0,6.5-0.5,10.7-0.8c0-11.7-0.3-22.6,0.1-33.5
		c0.2-6.1-2.4-8.2-8.1-7.9c-5,0.2-10.1,0-15.9,0c0-27.3-0.1-53.2,0.3-79.1c0-1.8,3.7-4.7,6-5.1c5.5-1,11.3-0.9,17.7-1.3
		C384.9,447.9,384.9,434.7,384.9,420.5z M557.7,620.7c1.6-4.8,3.1-9,5.3-15.5c-4.3,1.6-8.4,2-8.8,3.5c-3.2,12-11.8,9.5-20.1,8.1
		c-4.5-0.8-9.3-0.5-13.5-1.9c-5.7-2-14.3,2.2-16.9-7.3c0-0.2-4.6,0.5-6.8,1.5c-2.3,1.1-4.1,4-6.4,4.3c-12.2,1.9-24.6,3.3-36.4,4.9
		c-5.4-3-3.6-14.2-14.4-11.3c1.4,4.9,2.8,9.4,4.1,14.2c-9.1,3.4-17.5,6.9-26.2,9.4c-2.4,0.7-6.6-0.5-8.4-2.4
		c-5.2-5.5-9.3-12-14.4-17.7c-2-2.3-5.4-3.3-8.2-4.9c-0.7,0.9-1.5,1.9-2.2,2.8c6.5,9.3,13,18.6,19.6,28.1c-2.3,1.6-4.1,2.8-5.8,3.9
		c-12.5,7.7-12.8,7.9-23-2.5c-8.5-8.7-16-18.4-24.3-27.2c-2.2-2.4-5.9-3.4-9-5.1c-0.6,1.2-1.2,2.5-1.8,3.7
		c42.7,59.3,100.3,89.3,174.5,85.4c63.3-3.3,122.3-43.5,144.7-88.7c-3.9,1.3-7.7,3-10.4,5.8c-6.6,7.1-12.2,15.3-19.2,22
		c-16.6,15.8-10.8,15.4-31.3,3.1c-0.4-0.3-0.7-0.9-1-1.4c6.4-9.3,12.8-18.5,19.2-27.8c-0.9-0.9-1.9-1.9-2.8-2.8
		c-3,2.1-6.6,3.8-9,6.5c-4.6,5.2-8.3,11.3-13,16.5c-1.6,1.7-5.4,3.1-7.6,2.4C575.6,627.6,566.9,624.1,557.7,620.7z M657.4,404
		c-16.3-39.1-74.5-83.9-142.3-88.9c-81.8-6-149.2,40.2-173.6,88c3.5-0.9,7.1-2.1,9.5-4.6c9.5-9.9,18.3-20.3,28-30
		c2.3-2.3,7.1-4.1,9.9-3.2c5.3,1.6,10,5.3,14.9,8.2c-6.9,9.8-13.4,19-19.9,28.2c0.9,0.9,1.7,1.8,2.6,2.8c3.1-2.1,6.7-3.6,9.1-6.3
		c4.7-5.2,8.4-11.2,13-16.4c1.5-1.7,4.9-3.4,6.8-2.8c9.1,2.8,18.1,6.3,27.2,9.7c-1.5,5-2.7,9.2-4,13.4c0.8,0.7,1.6,1.4,2.4,2.2
		c2.5-2.3,5-4.7,7.6-6.8c2.7-2.2,5.7-5.8,8.5-5.7c8.7,0.2,17.5,1.5,26.1,3.2c4.8,1,11.6-1.2,13.4,6.6c0.1,0.5,6.3,0.2,6.4-0.1
		c0.7-6.4,5.8-5.2,9.7-5.7c8.7-1.2,17.7-1.4,26.1-3.6c6.5-1.7,9.3-0.1,12.1,5.6c1.3,2.6,5,4.1,7.6,6.1c0.7-0.8,1.4-1.6,2-2.4
		c-1.3-4.2-2.6-8.5-4-13.1c8.5-3.1,16.7-5.5,24.3-9c5.4-2.5,8.6-0.8,11.7,3.2c4.4,5.8,8.6,11.9,13.4,17.3c1.8,2,5.3,2.7,8,3.9
		c0.7-1,1.5-2,2.2-3c-6.7-9.2-13.3-18.3-20.3-27.8c2.9-1.8,5.7-3.1,8-5c7-6.1,12.7-5,18.6,1.8c8.4,9.6,17.1,18.9,26,28.1
		C650.8,400.4,654.3,402,657.4,404z"/>
	<path class="st0" d="M734.5,855.8c-13.7-17.9-26.3-34.3-39.7-51.9c9.2-6.4,17.4-13.2,26.5-18.3c14.8-8.4,28.4-5.3,38.9,7.7
		c10.2,12.6,10.6,27.7-0.3,39.8C752.6,841.2,743.7,847.7,734.5,855.8z M737.4,838.8c5.2-4.6,10.3-8.1,13.9-12.7
		c7.5-9.5,4-23.3-6.8-29.8c-8.2-4.9-26-0.4-30.2,7.8c-0.7,1.3-0.5,3.8,0.4,4.9C721.8,818.8,729.2,828.2,737.4,838.8z"/>
	<path class="st0" d="M382,840.6c9.6,2.8,18.3,5.1,26.9,7.9c10.3,3.4,15.2,9.5,15.2,18c-0.1,10-4.7,15.5-16,19
		c-0.8,0.3-1.6,0.6-3.1,1.2c2.2,9.2,4.4,18.4,6.7,27.7c-11.2,0.5-15.4-4.7-16.1-14c-0.4-4.8-1.5-9.6-3.2-14.1c-0.8-2-3.5-4-5.7-4.5
		c-1.1-0.3-3.5,2.6-4.3,4.5c-1.3,3-1.9,6.4-2.8,9.6c-3,10.7-3.3,10.8-14.7,5.2C370.4,881.5,376,861.7,382,840.6z M402.9,877.4
		c3.3-5,6.6-8,7.2-11.4c1-5.1-8.8-12.5-15.2-10.4c-3.3,1.1-7.8,9.1-6.6,11.3C390.5,870.9,396.4,873,402.9,877.4z"/>
	<path class="st0" d="M350.9,855.2c-1.7,3.2-3.3,6-5.1,9.4c-8.4-4-16.2-7.7-25-11.9c-2.4,4.3-4.7,8.4-7.6,13.6
		c9.8,4.9,18.9,9.4,28.7,14.3c-1.6,3.1-3,6-4.9,9.8c-13.5-6.6-26.4-12.8-40-19.5c9.6-19.6,18.7-38.3,28.3-57.8
		c12.9,6.4,25.4,12.6,38.5,19.2c-1.6,3.3-2.9,6.2-4.7,10c-8.9-4.3-17.5-8.5-27.1-13.1c-2,4.1-3.8,7.7-6.2,12.4
		C334.3,846.3,342.4,850.6,350.9,855.2z"/>
	<path class="st0" d="M677.2,814.7c1.9,3.4,3.4,6,5.3,9.6c-5.8,3-11.3,5.9-16.9,8.7c-11.2,5.5-11.3,6.1-2.5,17.4
		c7.7-3.7,15.5-7.5,23.2-11.2c7.1,8.2,7,8.9-1.8,13.3c-5.4,2.8-10.8,5.4-17.2,8.6c2.3,4.7,4.3,8.9,6.7,13.8
		c9.7-4.6,18.7-8.8,28.5-13.4c1.6,3.2,3.1,6.1,4.9,9.7c-13.2,6.6-25.9,12.9-39.9,19.9c-9.7-19.4-18.9-38-28.7-57.5
		C652.1,827.1,664.4,821,677.2,814.7z"/>
	<path class="st0" d="M726.6,193.5c4.1,14.2,0.4,23.8-9.7,26.3c-12.1,2.9-27.8-7.2-30-19.4c-1.9-10.4,6-17.8,20.6-19.3
		c-3.1-14.2,1.1-23.2,11.5-24.5c11.9-1.5,26.5,9.7,26.9,20.7C746.4,187.1,738.8,193.6,726.6,193.5z M720.7,201.5c0-1.3,0-2.6,0.1-4
		c-4.2-2.6-8.2-6.7-12.7-7.2c-2.5-0.3-7.7,5.1-8.1,8.4c-0.8,6.4,4.5,10.3,10.5,9.5C714.1,207.7,717.3,203.8,720.7,201.5z M737,176.8
		c-6.2-3.8-9.8-7.7-13.5-7.8c-2.6-0.1-5.4,4.9-8.1,7.6c3.3,3,6.1,7.4,9.9,8.6C727.5,185.8,731.3,181.1,737,176.8z"/>
	<path class="st0" d="M371.7,127.3c2.2-13,7.4-20.9,17.5-23.8c10.7-3.2,20.1,0.2,26,11c6.5,11.8,10.8,24.4,7,38.2
		c-2.6,9.4-9.5,13.8-18.4,15.3c-8.3,1.3-15.7-2.1-19.3-9.1C379.2,148.8,375.8,137.8,371.7,127.3z M383.9,125.1
		c3.2,9.2,5.6,17,8.6,24.5c2.1,5.2,6.8,9.4,12,6.4c3.6-2,7.1-8.1,6.8-12.1c-0.5-7.6-3.4-15.2-6-22.5c-2-5.6-6.6-10-12.6-7.2
		C388.9,116,386.8,121.3,383.9,125.1z"/>
	<path class="st0" d="M369.2,162.1c-0.1,11.7-3.9,19-13.2,22.9c-9,3.8-18.3,2.2-25-5.2c-8.8-9.7-13.8-21.3-14.6-34.5
		c-0.6-9.9,4.1-16.6,13-20.9c8.9-4.3,16.9-2,23.4,4.2C362.9,138.2,367.6,150.5,369.2,162.1z M359.8,163.7
		c-5.3-9.4-9.8-18.5-15.6-26.7c-1.5-2.2-7.9-3.3-10.2-1.9c-2.9,1.7-6.3,7.2-5.5,9.9c2.7,9.1,6.5,18,11.4,26.1c1.6,2.6,8.2,4,11.7,3
		C354.5,173.4,356.4,168.4,359.8,163.7z"/>
	<path class="st0" d="M691.2,152.7c-1.3,10.5-6.5,22.8-17.2,32.3c-6.4,5.7-13.8,7-22,3.5c-8.4-3.6-13.2-9.8-13.2-18.9
		c0-15.8,6.4-29,18.2-39.1c6.8-5.8,14.8-5.9,22.8-1.5C687.9,133.5,691.7,140,691.2,152.7z M682,149.3c-3.3-4.7-4.9-9.5-7.9-10.6
		c-3.1-1.1-9.4,0.3-10.9,2.7c-5.2,8.3-9.5,17.3-12.8,26.5c-0.9,2.5,1.9,8.4,4.5,9.5c3.1,1.4,9.6,0.7,11.2-1.5
		C672.1,167.9,676.6,158.8,682,149.3z"/>
	<path class="st0" d="M581.9,143.1c3.3-9.3,5.6-19.2,10.1-27.8c6.1-11.6,17.3-14.8,28.7-10.2c10,4,15.5,15.2,12.6,27.2
		c-1.9,7.9-4,15.9-7.6,23.2c-5.4,10.9-15.5,15.2-25.7,12.4C588.8,164.6,583.5,156.9,581.9,143.1z M624.5,125.3
		c-3.6-3.8-6.5-9.3-10.6-10.5c-3.1-0.9-9.8,2.6-11.4,5.9c-3.7,7.4-6.4,15.8-7.3,24c-0.4,3.7,3.9,10.3,7.4,11.3
		c3.4,1,10.4-2.1,12.3-5.4C619,143.5,621,135,624.5,125.3z"/>
	<path class="st0" d="M530,109.7c5.5-14.3,11.1-17.8,23.2-17.1c8.3,0.5,15.8,3.3,18.7,11.9c3.1,9.3-0.7,18.5-9.4,24.5
		c-6.9,4.8-13.9,9.4-23.1,15.6c11.4,2,20.1,3.6,28.8,5.1c0.2,7.2-1.5,10.4-9,8.9c-11.5-2.2-23.3-3.3-34.7-4.9
		c-1-9.3,2.6-14.9,9.4-19.1c7.5-4.6,14.7-9.8,21.8-15c4.6-3.4,7.4-8.3,2.9-13.2c-4.2-4.6-9.4-3.5-14.7,0
		C540.8,108.6,536.1,108.4,530,109.7z"/>
	<path class="st0" d="M296.9,216.6c0-7.8,0-15.5,0-22.3c-7.4,0.9-14.4,3.4-20.6,2.1c-11-2.2-16.3-12.5-14.5-23.9
		c1.8-11.1,12.9-19.8,25.1-19.6c11.2,0.2,20.6,8.6,21.6,20.5c0.9,10.6,1.5,21.4,0.4,31.9c-0.5,4.6-5.6,8.7-8.6,13
		C299.2,217.8,298,217.2,296.9,216.6z M296,174.7c-0.8-5.8-4-10.6-10.9-10.5c-6.8,0.1-11.6,3.7-12,11c-0.3,6.1,5.5,11.9,11.4,11.9
		C290.5,187.1,296,181.4,296,174.7z"/>
	<path class="st0" d="M277.6,850.6c-13.9,1.6-23.4-4.1-31.1-13.2c-8.3-9.7-9.3-21.2-4.4-32.5c5.4-12.4,14.9-21.2,28.9-21.9
		c13-0.7,23.6,5.3,30.7,16.3c1.8,2.8,2.3,10,1,10.7c-4.5,2.4-8.6,1.3-11.2-4.7c-3.1-7.3-10-10.8-17.8-10.4
		c-9.3,0.5-19.2,9.5-21.3,18.8c-1.9,8.3,0,15.7,7.2,21.1c1.7,1.2,3.9,2.8,5.6,2.6C274.7,836.1,276.2,842.1,277.6,850.6z"/>
	<path class="st0" d="M555.4,920.5c-3.7-21.1-7.3-41.3-11.1-62.7c13.4-2.5,26.7-4.9,40.9-7.5c0.7,3.8,1.4,7.1,2.1,11
		c-7.9,1.6-14.9,3.5-22.1,4.3c-7.3,0.8-6,5.5-5.5,9.9c0.6,5.7,4.2,6.6,9.2,5.4c6.1-1.4,12.3-2.4,19.1-3.6c0.6,4,1.1,6.9,1.7,10.8
		c-8.8,1.9-17.4,3.8-26.2,5.7c1.2,8.6,2.3,16.3,3.4,24.2C562.9,918.9,559.7,919.6,555.4,920.5z"/>
	<path class="st0" d="M470,870.7c-1.3,13-2.9,26.2-3.9,39.4c-0.8,10.9-1.4,11.6-13.7,9.5c1.6-16.7,3.1-33.4,4.8-51.5
		c-5.6-1.1-11.1-2.1-17.2-3.2c0-2.7,0-5.6,0-9.9c16.2,1.5,32.3,3,48.3,4.5C489.9,866.8,489.9,866.8,470,870.7z"/>
	<path class="st0" d="M463.6,155c-1.9-15.7-3.8-31.5-5.9-49.3c-5.1,4.7-8.7,8-12.8,11.9c-2.3-2.1-4.5-4-7.3-6.6
		c10.1-7,13.9-21.4,30.3-19.8c1.9,18.6,3.7,37.2,5.7,55.8C474.4,154.1,471.2,156.2,463.6,155z"/>
	<path class="st0" d="M509.2,859.9c4.2,0,7.4,0,11.6,0c0.7,19.4,1.5,38.4,1.8,57.4c0,1.9-3.8,5.5-5.7,5.4c-2.2-0.1-5.8-3.3-6-5.5
		c-1-11.5-1.3-23-1.7-34.5C509.1,875.5,509.2,868.2,509.2,859.9z"/>
	<path class="st0" d="M637.3,901.3c-4.5,1.3-7.6,2.2-11.7,3.3c-6.5-20-12.9-39.6-19.5-60c3.8-1.3,7.1-2.5,11.6-4.1
		C624.3,861,630.7,880.9,637.3,901.3z"/>
	<path class="st0" d="M505,157.1c-4-4.9-8.4-8-7.9-10.2c0.6-3.1,4.7-5.6,7.3-8.4c2.5,2.6,6.5,4.9,7,7.8
		C511.8,148.8,508.2,151.9,505,157.1z"/>
	<path class="st0" d="M515.6,116.5c-5.3,3.8-8.5,7.7-10.9,7.3c-2.9-0.5-5.2-4.7-7.8-7.3c2.6-2.5,4.9-6.5,7.8-7
		C507.2,109.2,510.3,112.9,515.6,116.5z"/>
	<path class="st0" d="M618.6,503.3c0.7-7.2,1.3-15.4,2.4-23.6c1.1-8.7,5.8-14.9,14.7-16.3c6.5-1,13.4-1.6,19.9-0.6
		c9.8,1.5,15.3,8.3,15.5,18.6c0.4,16.4,0.4,32.8-0.1,49.2c-0.3,9.9-7.3,17.5-17,18.4c-19.6,1.8-33.1-1.5-33.8-25.6
		C620,517,619.2,510.7,618.6,503.3z"/>
	<path class="st0" d="M505.4,663.7c0-13.4-0.2-24.6,0.2-35.7c0.1-1.8,3.1-4.9,4.7-4.8c11.1,0.6,22.1,1.8,35.8,3
		c-9,13.3-15.7,24.8-24.1,34.8C519.6,663.9,512.3,662.7,505.4,663.7z"/>
	<path class="st0" d="M456.1,626.1c14.8-1.6,26.7-2.8,39.3-4.1c0.6,12.8,1.3,24.4,1.5,36.1c0,1.4-2.3,4-3.6,4.1
		c-4.3,0.4-10.9,1.5-12.7-0.7C472.2,651.1,465.1,639.6,456.1,626.1z"/>
	<path class="st0" d="M447.9,628.5c8.5,13.2,16.1,25.1,24.1,37.5c-5.2,4.8-10.3,5.7-16.1,1.5c-12-8.7-24-17.3-38.4-27.7
		C429.5,635.3,438.6,632,447.9,628.5z"/>
	<path class="st0" d="M581.5,641.5c-13,9.2-25.8,18.6-39.2,27.2c-2.8,1.8-7.6,0.3-13.6,0.3c8.5-14,15.6-25.8,23-37.3
		c0.8-1.2,4.3-1.6,6.2-1c7.5,2.1,14.9,4.8,22.3,7.2C580.7,639.1,581.1,640.3,581.5,641.5z"/>
	<path class="st0" d="M539,683c-25.5,4.9-50.6,5.4-76.2-0.1C477.2,667.3,524.7,666.6,539,683z"/>
	<path class="st0" d="M606.7,653c-17.7,12.9-36.1,22-56.5,26.2c-0.5-1-1-1.9-1.5-2.9c4.9-3.6,9.9-7.1,14.7-10.9
		c5.8-4.5,11.6-8.9,17-13.7C591.8,641.6,593,641.6,606.7,653z"/>
	<path class="st0" d="M452.4,679.3c-21.9-3.9-39.8-14-58.3-26.4c5.1-3,9.1-5.7,13.4-7.8c1.5-0.7,4.2-0.6,5.5,0.3
		c13,10,25.9,20.1,38.7,30.3C452.1,676,452,676.8,452.4,679.3z"/>
	<path class="st0" d="M456.5,380.3c7.2-10.4,13.7-21.3,21.9-30.8c2.3-2.7,9.4-2.2,14.1-1.7c1.2,0.1,2.7,5.4,2.8,8.3
		c0.4,8.2,0.4,16.4-0.1,24.5c-0.1,2.1-3,5.9-4.5,5.8c-11-0.5-22-1.7-33.1-2.7C457.2,382.6,456.8,381.5,456.5,380.3z"/>
	<path class="st0" d="M544.2,383c-14.7,1.6-26.7,2.9-40.2,4.4c0-12.9-0.4-24.3,0.2-35.7c0.3-5.5,12.6-7.6,16.5-2.5
		C528.5,359.4,535.5,370.4,544.2,383z"/>
	<path class="st0" d="M528.2,343.5c6.3-5.2,11.8-4.9,17.3-0.8c11.4,8.4,22.9,16.8,34.4,25.2c-0.2,1-0.4,2.1-0.6,3.1
		c-7.9,2.7-15.7,5.6-23.7,7.8c-1.6,0.5-4.8-0.9-5.8-2.4C542.4,365.7,535.5,354.7,528.2,343.5z"/>
	<path class="st0" d="M446.9,380.8c-9.3-3.1-18-6.1-26.8-9.1c-0.4-1-0.9-2-1.3-3c13.7-9.5,27.1-19.4,41.1-28.3
		c2.3-1.5,7.1,1,11.6,1.7C462.9,355.6,455.2,367.8,446.9,380.8z"/>
	<path class="st0" d="M538,327.4c-21.4,15.6-55.8,15.6-77,0C486.9,321.9,512.1,321.2,538,327.4z"/>
	<path class="st0" d="M450.9,333.5c-12.4,10.2-24.7,20.5-37.5,30.2c-2.1,1.6-6.7,0.9-9.7-0.1c-3.3-1.1-6.1-3.7-10.2-6.2
		c17.9-12.7,35.9-22.7,56.6-26.6C450.4,331.6,450.6,332.6,450.9,333.5z"/>
	<path class="st0" d="M547.9,332.6c21.3,1.3,39.1,11.7,58,24c-5.5,3.2-9.6,5.9-14.1,8c-1.4,0.7-4.1,0.2-5.4-0.8
		C573.5,353.6,560.7,343,547.9,332.6z"/>
</g>
</svg>
